<svg width="258" height="168" viewBox="0 0 258 168" fill="none" xmlns="http://www.w3.org/2000/svg">
<g clip-path="url(#clip0_782_225)">
<path d="M0.839844 142.535C1.04803 141.259 1.28338 139.973 1.46442 138.697C2.13425 133.972 3.60064 129.492 5.38384 125.083C8.53387 117.29 12.7611 110.139 18.2826 103.803C21.5594 100.037 25.1801 96.5704 29.7151 94.2713C31.6069 93.3118 33.6254 92.7777 35.816 93.176C38.3233 93.6286 39.2013 95.4661 39.7082 97.6023C40.6225 101.476 40.6496 105.387 39.9164 109.297C39.4367 111.85 37.5992 112.682 35.644 113.017C34.7931 113.162 34.0237 111.859 34.3677 110.881C34.9651 109.179 35.5987 107.487 36.2414 105.803C36.9022 104.092 36.7393 102.363 36.3772 100.635C35.9336 98.5075 33.6254 98.4894 31.9961 99.3945C29.4616 100.798 27.6784 103.079 25.8047 105.206C22.5098 108.935 19.6404 112.981 17.2507 117.335C15.6667 120.241 14.2093 123.219 12.8697 126.242C11.2585 129.89 10.1541 133.719 9.39379 137.629C9.12223 139.014 9.05887 140.444 8.92309 141.856C8.81447 142.96 8.62439 144.074 8.68775 145.169C8.87784 148.102 8.93215 151.08 10.1089 153.832C12.2089 158.747 16.9792 159.516 21.2969 156.909C22.9715 155.895 24.1754 154.429 25.2525 152.836C25.3521 152.682 25.4426 152.519 25.5784 152.401C26.1849 151.858 26.384 150.564 27.615 151.152C28.3663 151.514 28.7194 153.605 28.131 154.402C27.262 155.597 26.3387 156.773 25.2978 157.805C22.7904 160.295 19.8486 162.032 16.3275 162.802C10.6882 164.033 5.51962 161.879 2.77693 156.538C1.80839 154.646 1.24717 152.664 1.07519 150.555C1.06614 150.41 0.930362 150.265 0.857947 150.12C0.857947 147.586 0.857947 145.06 0.857947 142.526L0.839844 142.535Z" fill="#2C5336"/>
<path d="M229.217 119.498C230.702 117.914 232.023 116.33 233.535 114.954C234.802 113.805 236.214 112.755 237.708 111.94C240.197 110.582 241.971 112.293 242.415 114.511C242.686 115.823 242.65 117.208 242.759 118.765C243.166 118.376 243.492 118.041 243.836 117.733C245.483 116.231 247.058 114.656 248.796 113.262C250.489 111.904 252.544 111.524 254.689 111.732C256.056 111.868 257.314 113.497 257.151 115.389C256.943 117.769 256.499 120.15 256.002 122.494C254.988 127.292 253.883 132.071 252.806 136.85C251.847 141.123 250.869 145.395 249.919 149.668C249.493 151.605 249.059 153.542 248.742 155.497C248.434 157.362 250.199 159.425 252.118 159.661C252.39 159.697 252.797 160.005 252.833 160.24C252.951 160.991 252.752 161.716 251.937 161.996C250.462 162.503 248.995 162.449 247.647 161.625C244.832 159.896 243.058 157.488 243.329 154.058C243.537 151.442 243.908 148.826 244.406 146.255C245.411 141.069 246.533 135.9 247.647 130.731C248.145 128.423 248.805 126.16 249.258 123.843C249.466 122.757 249.439 121.589 249.312 120.485C249.276 120.132 248.561 119.58 248.19 119.607C247.475 119.652 246.606 119.851 246.117 120.322C245.013 121.381 243.863 122.513 243.148 123.843C241.12 127.609 240.125 131.745 239.183 135.891C238.568 138.597 238.025 141.358 237.083 143.956C236.097 146.653 234.006 148.473 230.982 148.636C229.751 148.699 229.453 148.238 229.742 147.043C231.163 141.159 232.557 135.266 233.97 129.374C234.422 127.5 234.947 125.635 235.291 123.744C235.454 122.838 235.391 121.834 235.201 120.928C235.02 120.096 234.142 119.942 233.544 120.331C232.304 121.155 231.037 122.024 230.05 123.119C227.823 125.581 226.764 128.677 225.977 131.845C225.044 135.592 224.302 139.376 223.306 143.105C222.428 146.4 219.704 148.591 216.518 148.79C215.993 148.826 215.413 148.554 215.531 147.821C215.748 146.5 215.956 145.169 216.273 143.875C217.242 139.865 218.237 135.873 219.251 131.872C220.057 128.695 220.917 125.536 221.686 122.35C221.922 121.354 221.976 120.304 222.021 119.272C222.066 118.267 221.342 117.905 220.464 118.448C220.129 118.656 219.849 118.955 219.496 119.145C219.17 119.317 218.563 119.58 218.482 119.471C218.192 119.109 217.957 118.611 217.921 118.15C217.894 117.806 218.138 117.38 218.382 117.1C220.12 115.099 222.048 113.307 224.474 112.13C226.629 111.089 228.249 111.949 228.566 114.348C228.756 115.76 228.846 117.181 228.991 118.602C229.018 118.892 229.136 119.181 229.217 119.516V119.498Z" fill="#2C5336"/>
<path d="M48.1093 98.2762C47.1951 98.5839 46.2899 98.9098 45.3666 99.1904C44.8416 99.3533 44.2623 99.996 43.7735 99.1904C43.3119 98.4482 43.6287 97.7783 44.2804 97.3529C46.7425 95.7507 49.2137 94.1305 52.3184 94.1486C53.7124 94.1486 54.4094 94.8999 54.4546 96.2848C54.5542 99.127 53.6219 101.788 53.0426 104.513C52.1193 108.903 51.0874 113.266 50.1188 117.647C50.0555 117.946 50.1188 118.28 50.1188 118.796C51.3408 117.62 52.3727 116.479 53.5495 115.511C54.9615 114.352 56.3827 113.121 58.0029 112.315C61.2163 110.713 63.8142 111.872 64.1853 115.493C64.4478 118.018 64.2034 120.616 63.9862 123.168C63.778 125.63 63.3978 128.083 62.9362 130.509C61.9857 135.452 60.5012 140.195 57.2969 144.214C55.9301 145.924 54.2193 147.201 52.0831 147.825C51.7482 147.925 51.3861 147.925 51.0331 147.943C50.2003 147.988 49.7749 147.545 49.6572 146.757C49.5305 145.924 50.0374 145.472 50.7344 145.427C51.9111 145.345 52.5085 144.585 53.1059 143.752C55.0068 141.082 55.7852 137.977 56.3917 134.854C57.0163 131.659 57.4779 128.418 57.8853 125.187C58.0754 123.693 58.0301 122.155 57.9305 120.643C57.8129 118.796 56.0296 117.991 54.4365 119.077C53.5585 119.674 52.762 120.462 52.1012 121.304C49.1865 125.006 47.6205 129.378 46.2628 133.795C45.1856 137.298 44.4162 140.91 43.3209 144.413C42.6421 146.576 40.9584 147.88 38.7317 148.387C37.1567 148.749 36.7403 148.314 37.1024 146.748C38.0437 142.702 38.9851 138.656 39.9537 134.628C41.5196 128.129 43.1127 121.63 44.6968 115.14C45.9007 110.215 47.1046 105.291 48.2813 100.358C48.408 99.815 48.3628 99.2357 48.399 98.6744C48.2994 98.5477 48.2089 98.421 48.1093 98.2943V98.2762Z" fill="#2C5336"/>
<path d="M184.245 92.525C186.761 92.3168 189.73 94.9962 190.536 98.3905C190.997 100.31 191.323 102.265 191.613 104.211C191.866 105.903 190.852 107.922 189.621 108.492C188.508 108.999 187.422 108.411 187.331 107.189C187.214 105.505 187.214 103.822 187.06 102.147C186.915 100.663 186.707 99.1781 186.372 97.7298C186.154 96.7612 185.566 95.9828 184.453 95.7927C181.511 95.2858 178.687 96.1367 178.171 99.8207C177.691 103.206 178.542 106.392 179.384 109.56C180.352 113.244 181.647 116.847 182.615 120.531C183.385 123.446 184 126.415 184.435 129.393C184.788 131.746 184.978 134.172 184.869 136.544C184.724 139.531 183.828 142.373 181.782 144.69C179.809 146.917 177.229 147.931 174.306 148.184C168.132 148.727 164.72 144.772 163.009 140.065C162.14 137.657 161.832 135.159 161.905 132.606C161.923 132.081 161.986 131.529 162.167 131.04C162.303 130.651 162.611 130.063 162.9 130.026C163.398 129.972 164.104 130.126 164.412 130.47C164.765 130.877 164.919 131.574 164.919 132.144C164.919 135.394 165.444 138.517 167.399 141.178C169.617 144.192 171.699 145.034 175.193 143.785C176.578 143.296 177.42 142.228 177.727 140.771C178.252 138.345 178.026 135.901 177.438 133.566C176.306 129.049 174.876 124.613 173.636 120.124C172.622 116.476 171.617 112.846 171.183 109.044C170.785 105.496 171.264 102.156 172.767 98.9699C174.776 94.7246 178.252 92.7423 184.245 92.516V92.525Z" fill="#2C5336"/>
<path d="M127.939 115.527C128.699 114.088 129.749 112.884 131.197 112.187C131.93 111.834 132.845 111.798 133.668 111.789C133.804 111.789 134.121 112.749 134.039 113.219C133.84 114.441 133.433 115.618 133.161 116.831C132.075 121.665 131.025 126.507 129.948 131.341C129.577 133.033 129.133 134.708 128.817 136.41C128.735 136.862 128.979 137.378 129.07 137.858C129.541 137.713 130.084 137.677 130.455 137.405C130.971 137.034 131.315 136.419 131.822 136.03C132.193 135.749 132.872 135.414 133.134 135.568C133.723 135.921 133.867 136.627 133.469 137.279C132.971 138.111 132.483 138.971 131.885 139.732C130.292 141.768 128.663 143.787 126.988 145.76C126.563 146.258 125.947 146.674 125.341 146.946C123.25 147.878 121.648 147.172 121.068 144.764C120.923 144.149 120.896 143.506 120.797 142.728C119.973 143.461 119.231 144.158 118.443 144.819C116.959 146.077 115.474 147.326 113.501 147.806C111.193 148.367 109.618 147.498 108.703 145.443C107.753 143.307 107.545 141.062 107.789 138.691C108.559 131.051 111.491 124.299 115.972 118.171C117.538 116.025 119.593 114.369 121.946 113.102C123.268 112.396 124.716 112.396 126.047 112.64C127.441 112.893 128.056 113.192 127.748 115.355C127.214 115.518 126.671 115.844 126.155 115.799C123.883 115.591 122.2 116.614 120.978 118.343C116.913 124.108 114.144 130.345 114.316 137.596C114.361 139.614 115.664 140.664 117.583 139.967C120.588 138.881 122.526 136.681 123.34 133.613C124.191 130.418 124.834 127.159 125.639 123.955C126.345 121.121 127.151 118.315 127.911 115.5L127.939 115.527Z" fill="#2C5336"/>
<path d="M89.229 117.517C88.9213 117.644 88.6135 117.752 88.3239 117.906C88.007 118.069 87.7264 118.377 87.4006 118.44C86.948 118.531 86.2329 118.639 86.0428 118.404C85.7894 118.096 85.735 117.318 85.9613 116.992C86.8122 115.797 87.6993 114.584 88.7764 113.607C90.1433 112.376 91.7273 111.434 93.6644 111.271C96.389 111.045 97.439 112.575 97.3847 114.847C97.3485 116.811 96.9593 118.802 96.4795 120.721C95.4929 124.659 94.3252 128.542 93.2661 132.461C92.7502 134.371 92.2071 136.29 91.836 138.227C91.6187 139.368 91.836 140.526 92.9131 141.278C93.9269 141.993 94.8321 141.604 95.8006 141.051C98.2627 139.63 99.9283 137.449 101.395 135.141C103.594 131.674 104.834 127.818 105.721 123.808C106.627 119.707 106.708 115.562 106.509 111.425C106.364 108.483 105.848 105.56 104.155 102.98C102.318 100.174 100.39 99.5855 97.2761 100.798C96.6425 101.043 95.6649 100.998 95.0946 100.672C94.4881 100.319 93.945 99.504 93.8092 98.807C93.6282 97.8838 94.6058 97.6032 95.3028 97.404C99.5933 96.1549 104.291 97.232 106.627 101.704C108.183 104.682 109.007 107.877 109.161 111.244C109.224 112.529 109.387 113.815 109.36 115.1C109.279 119.3 108.609 123.41 107.496 127.474C106.4 131.457 104.889 135.213 102.662 138.68C100.788 141.604 98.6429 144.301 95.6558 146.193C93.7187 147.415 91.6187 148.266 89.3105 148.139C86.7941 148.003 85.21 146.636 84.8389 144.147C84.2234 140.083 85.0924 136.209 86.0519 132.344C86.957 128.714 88.0885 125.138 89.0299 121.518C89.3467 120.296 89.392 119.001 89.5549 117.743C89.4553 117.662 89.3467 117.589 89.2471 117.508L89.229 117.517Z" fill="#2C5336"/>
<path d="M214.3 123.13C213.965 130.39 212.118 136.961 207.248 142.465C205.058 144.945 202.469 146.855 199.247 147.823C194.757 149.163 191.544 146.764 190.05 143.117C188.846 140.184 188.882 137.161 189.217 134.065C189.561 130.951 190.647 128.199 192.657 125.828C194.042 124.198 195.662 122.931 197.979 123.004C198.912 123.031 199.355 123.511 199.201 124.37C199.057 125.176 198.731 125.945 198.486 126.724C197.364 130.254 196.115 133.757 195.164 137.333C194.712 139.016 194.648 140.826 195.3 142.592C196.079 144.701 197.409 145.253 199.364 144.103C201.193 143.026 202.351 141.324 203.447 139.586C206.081 135.386 207.927 130.861 208.534 125.927C208.887 123.094 208.905 120.216 209.014 117.355C209.041 116.704 208.869 116.007 208.661 115.382C208.126 113.798 206.624 113.101 204.795 113.536C202.342 114.115 200.749 115.771 199.563 117.862C199.355 118.224 199.545 118.822 199.563 119.311C199.591 120.026 199.726 120.75 199.636 121.447C199.536 122.234 197.97 122.633 197.165 122.153C195.988 121.447 195.535 120.134 196.088 118.659C197.581 114.667 200.478 112.015 204.569 111.182C208.335 110.413 211.973 112.169 213.087 116.323C213.684 118.541 213.911 120.858 214.309 123.13H214.3Z" fill="#2C5336"/>
<path d="M75.7071 140.86C76.2502 140.552 76.748 140.19 77.3092 139.982C77.7437 139.819 78.5131 139.647 78.676 139.846C78.9476 140.19 79.1196 141.023 78.8933 141.294C76.8476 143.82 75.3178 146.916 71.8872 148.002C70.2307 148.527 68.2936 147.323 67.9044 145.63C67.3341 143.141 67.9044 140.733 68.4656 138.38C69.5247 133.926 70.8281 129.527 71.9234 125.074C72.4846 122.793 72.8286 120.457 73.3355 117.796C72.2131 118.14 71.4618 118.366 70.6743 118.611C69.8415 117.851 69.6967 117.009 70.5113 116.167C72.4122 114.176 74.6661 112.601 77.2096 111.596C79.0472 110.872 80.6041 112.03 80.4321 114.04C80.2058 116.819 79.8256 119.607 79.2463 122.331C78.323 126.694 77.1825 131.012 76.1144 135.338C75.8428 136.443 75.5441 137.556 75.0825 138.588C74.6661 139.52 74.9105 140.154 75.6889 140.869L75.7071 140.86Z" fill="#2C5336"/>
<path d="M76.5921 104.699C76.5196 103.324 77.108 102.192 77.9498 101.178C78.9817 99.9382 80.2399 99.9653 81.5434 100.454C82.6477 100.87 83.2904 102.663 82.9826 103.939C82.8468 104.482 82.8197 105.052 82.6568 105.586C82.168 107.17 81.0455 108.193 79.4524 108.392C78.846 108.465 77.9408 107.985 77.5515 107.469C76.9722 106.718 76.7278 105.704 76.3477 104.808C76.4291 104.772 76.5196 104.736 76.6011 104.699H76.5921Z" fill="#2C5336"/>
<path d="M155.144 127.379C154.773 128.32 154.51 129.108 154.148 129.841C154.021 130.094 153.623 130.357 153.352 130.357C149.124 130.402 144.897 130.393 140.679 130.402C140.616 130.402 140.552 130.348 140.398 130.266C140.824 129.425 141.213 128.574 141.684 127.759C141.792 127.56 142.145 127.397 142.381 127.397C146.572 127.379 150.754 127.379 155.144 127.379Z" fill="#2C5336"/>
<path d="M154.027 167.802C154.606 165.304 155.167 162.878 155.755 160.316C154.877 160.443 154.235 160.542 153.592 160.642C153.574 160.579 153.556 160.524 153.538 160.461C154.054 160.262 154.579 160.063 155.095 159.863C154.099 159.357 153.085 159.239 152.162 159.746C151.166 160.289 150.795 161.257 150.804 162.226C151.61 162.027 152.406 161.719 153.221 161.665C153.628 161.638 154.289 161.982 154.443 162.335C154.76 163.032 154.036 163.185 153.547 163.394C153.42 163.448 153.284 163.493 153.149 163.547C152.741 162.325 151.963 162.09 151.23 163.158C150.533 164.181 150.107 165.43 149.745 166.643C149.437 167.657 149.084 168.291 147.727 167.747C147.953 166.806 148.179 165.792 148.433 164.779C148.749 163.511 148.994 162.226 149.419 160.995C149.926 159.519 151.193 158.994 152.633 158.813C152.913 158.777 153.212 158.804 153.502 158.813C155.24 158.813 156.977 159.004 158.697 158.479C158.743 158.596 158.788 158.714 158.833 158.832C158.272 159.175 157.711 159.519 157.149 159.872C157.24 159.882 157.34 159.891 157.43 159.9C157.041 161.782 156.652 163.674 156.253 165.557C156.172 165.937 156.072 166.317 155.973 166.697C155.737 167.597 155.08 167.968 153.999 167.811L154.027 167.802Z" fill="#916E4F"/>
<path d="M232.163 159.068H233.81C233.358 161.032 232.715 162.906 232.525 164.825C232.208 168.02 228.28 168.97 226.424 166.916C225.799 167.278 225.274 167.703 224.668 167.884C224.188 168.029 223.808 167.748 224.152 167.124C224.252 166.943 224.351 166.716 224.324 166.517C224.116 164.571 225.401 162.987 225.618 161.15C225.673 160.679 225.546 160.19 225.274 159.719C225.302 159.656 225.32 159.557 225.365 159.538C225.971 159.249 226.469 158.407 227.275 158.95C228.099 159.511 227.474 160.272 227.347 160.905C227.085 162.209 226.714 163.485 226.397 164.77C226.198 165.576 226.913 166.445 228.017 166.735C229.121 167.033 230.208 166.572 230.479 165.603C231.068 163.449 231.593 161.276 232.163 159.059V159.068Z" fill="#916E4F"/>
<path d="M192.981 161.157C193.334 159.872 193.045 159.519 191.795 159.446C190.628 159.374 189.659 159.618 188.944 160.931C189.469 161.23 189.976 161.61 190.537 161.8C191.289 162.053 192.094 162.117 192.855 162.316C194.448 162.732 195.009 164.018 194.249 165.493C192.945 168.009 188.926 168.435 187.188 167.484C186.12 166.905 185.803 165.62 186.609 165.122C187.098 164.823 187.822 164.896 188.274 164.823C188.238 165.52 187.976 166.452 188.22 166.615C188.817 167.005 189.659 167.195 190.392 167.167C190.936 167.149 191.614 166.778 191.949 166.344C192.357 165.828 192.773 164.968 192.601 164.452C192.438 163.963 191.56 163.628 190.936 163.384C190.112 163.076 189.207 163.004 188.383 162.687C187.052 162.189 186.826 161.049 187.867 160.071C188.356 159.618 188.998 159.139 189.614 159.075C190.981 158.93 192.375 158.958 193.742 159.075C194.43 159.139 195.009 159.627 194.891 160.505C194.764 161.474 194.004 161.121 193.452 161.184C193.316 161.202 193.171 161.166 192.954 161.148L192.981 161.157Z" fill="#916E4F"/>
<path d="M38.1496 159.614C38.3307 159.514 38.4755 159.433 38.6203 159.351C39.2902 158.953 40.0143 158.31 40.7113 159.17C41.2182 159.795 40.6389 161.189 39.8604 161.714C39.5979 161.895 39.3716 162.23 39.2811 162.537C39.0005 163.497 38.8014 164.474 38.557 165.443C38.2945 166.475 38.7833 167.19 39.8423 167.281C41.363 167.416 43.0919 165.841 43.1824 164.221C43.3001 162.221 43.2277 162.085 41.4626 161.198C41.9967 160.6 42.4945 159.831 43.1824 159.342C43.6531 159.007 44.3954 159.062 45.02 158.944L45.2463 159.333C44.5855 159.931 43.9337 160.528 43.2277 161.162C44.8118 161.641 45.1376 162.936 44.8932 164.375C44.5855 166.149 43.3182 167.253 41.6708 167.652C40.5846 167.923 39.3173 167.887 38.2311 167.606C36.991 167.29 36.6199 166.303 36.9095 165.045C37.0996 164.203 37.3078 163.361 37.5794 162.546C37.6971 162.193 37.9505 161.831 38.2402 161.605C39.3626 160.754 39.3716 160.32 38.1406 159.623L38.1496 159.614Z" fill="#916E4F"/>
<path d="M76.9841 162.249H75.219C74.866 161.47 75.1375 160.864 75.6263 160.276C77.0294 158.61 79.6906 158.465 81.3018 159.108C82.2975 159.506 82.8587 160.348 82.8497 161.389C82.8316 163.444 82.3518 165.372 80.6591 166.757C79.5277 167.689 78.2061 168.151 76.7397 167.807C75.5539 167.526 75.0651 166.395 75.8617 165.779C76.2509 165.48 76.9207 165.544 77.491 165.435C77.491 165.634 77.5091 165.707 77.491 165.761C77.3733 166.177 77.2466 166.585 77.1199 167.001C77.6177 167.001 78.2152 167.191 78.5863 166.974C80.2156 166.06 80.7134 164.457 80.9307 162.729C80.9759 162.376 80.8854 162.004 80.9307 161.651C81.0212 160.801 80.9307 159.886 80.0527 159.669C79.3014 159.479 78.3328 159.579 77.6268 159.904C76.7669 160.303 76.5768 161.217 76.9932 162.24L76.9841 162.249Z" fill="#916E4F"/>
<path d="M115.827 167.86C115.926 167.344 116.008 166.9 116.107 166.466C116.515 164.728 116.985 163.008 117.311 161.252C117.411 160.727 117.221 159.713 116.976 159.65C116.361 159.487 115.429 159.514 115.003 159.885C114.433 160.392 114.225 161.297 113.772 162.212H112.731C112.423 160.573 113.781 158.98 115.637 158.808C116.144 158.763 116.66 158.718 117.148 158.808C118.95 159.134 119.384 159.858 119.058 161.379C118.651 163.262 118.099 165.108 117.728 167C117.501 168.131 116.777 167.95 115.809 167.869L115.827 167.86Z" fill="#916E4F"/>
<path d="M44.6457 156.8C44.7725 156.374 44.8901 156.003 45.0169 155.596H46.7277C46.5376 156.392 46.4199 157.125 46.1664 157.813C45.9673 158.338 44.7453 158.338 44.2927 157.804C43.5505 156.926 42.6 156.609 41.5048 156.628C40.5634 156.637 39.7487 156.854 39.8845 158.112H38.0651C37.7392 157.216 38.2914 156.8 38.9522 156.447C40.319 155.704 42.944 155.795 44.6548 156.8H44.6457Z" fill="#916E4F"/>
<path d="M120.654 44.3263C130.755 31.4004 137.273 16.8181 139.146 0C141.183 16.7728 147.501 31.4276 157.721 44.2901C151.484 50.5177 145.284 56.7181 138.974 63.0271C132.964 56.8991 126.8 50.6082 120.645 44.3263H120.654Z" fill="#916E4F"/>
<path d="M118.266 47.6328C124.376 53.7337 130.558 59.916 136.632 65.9988C130.459 72.172 124.231 78.3906 118.094 84.5276C112.047 78.4811 105.838 72.2807 99.7188 66.1617C105.856 60.0246 112.056 53.8332 118.257 47.6328H118.266Z" fill="#916E4F"/>
<path d="M178.639 66.2181C172.565 72.2828 166.391 78.4651 160.291 84.566C154.144 78.4108 147.917 72.1923 141.734 66.0009C147.808 59.9272 153.991 53.7449 160.082 47.6621C166.247 53.8173 172.447 60.0177 178.648 66.2181H178.639Z" fill="#916E4F"/>
</g>
<defs>
<clipPath id="clip0_782_225">
<rect width="256.32" height="168" fill="white" transform="translate(0.839844)"/>
</clipPath>
</defs>
</svg>
