<svg width="24" height="24" viewBox="0 0 24 24" fill="none" xmlns="http://www.w3.org/2000/svg">
<g id="icon/instagram">
<path id="vector" fill-rule="evenodd" clip-rule="evenodd" d="M12 3C9.5556 3 9.2496 3.0102 8.2896 3.054C7.3314 3.0978 6.6768 3.2502 6.1044 3.4728C5.5044 3.6984 4.9602 4.0524 4.5102 4.5108C4.05253 4.96028 3.69831 5.5041 3.4722 6.1044C3.2508 6.6768 3.0978 7.332 3.054 8.2902C3.0108 9.2496 3 9.555 3 12C3 14.445 3.0102 14.7504 3.054 15.7104C3.0978 16.6686 3.2502 17.3232 3.4728 17.8956C3.6984 18.4956 4.0524 19.0398 4.5108 19.4898C4.96029 19.9475 5.50411 20.3017 6.1044 20.5278C6.6768 20.7498 7.3314 20.9022 8.2896 20.946C9.2496 20.9898 9.5556 21 12 21C14.4444 21 14.7504 20.9898 15.7104 20.946C16.6686 20.9022 17.3232 20.7498 17.8956 20.5272C18.4956 20.3016 19.0398 19.9476 19.4898 19.4892C19.9475 19.0397 20.3017 18.4959 20.5278 17.8956C20.7498 17.3232 20.9022 16.6686 20.946 15.7104C20.9898 14.7504 21 14.4444 21 12C21 9.5556 20.9898 9.2496 20.946 8.2896C20.9022 7.3314 20.7498 6.6768 20.5272 6.1044C20.3012 5.50384 19.947 4.95979 19.4892 4.5102C19.0397 4.05253 18.4959 3.69831 17.8956 3.4722C17.3232 3.2508 16.668 3.0978 15.7098 3.054C14.7504 3.0108 14.445 3 12 3ZM12 4.6218C14.403 4.6218 14.688 4.6308 15.6372 4.674C16.5144 4.7142 16.9908 4.86 17.3082 4.9842C17.7282 5.1468 18.0282 5.3424 18.3432 5.6568C18.6582 5.9718 18.8532 6.2718 19.0158 6.6918C19.1394 7.0092 19.2858 7.4856 19.326 8.3628C19.3692 9.312 19.3782 9.597 19.3782 12C19.3782 14.403 19.3692 14.688 19.326 15.6372C19.2858 16.5144 19.14 16.9908 19.0158 17.3082C18.8718 17.6991 18.6419 18.0528 18.3432 18.3432C18.0528 18.642 17.6992 18.8718 17.3082 19.0158C16.9908 19.1394 16.5144 19.2858 15.6372 19.326C14.688 19.3692 14.4036 19.3782 12 19.3782C9.5964 19.3782 9.312 19.3692 8.3628 19.326C7.4856 19.2858 7.0092 19.14 6.6918 19.0158C6.30087 18.8718 5.9472 18.6419 5.6568 18.3432C5.35811 18.0528 5.12828 17.6991 4.9842 17.3082C4.8606 16.9908 4.7142 16.5144 4.674 15.6372C4.6308 14.688 4.6218 14.403 4.6218 12C4.6218 9.597 4.6308 9.312 4.674 8.3628C4.7142 7.4856 4.86 7.0092 4.9842 6.6918C5.1468 6.2718 5.3424 5.9718 5.6568 5.6568C5.94716 5.35803 6.30085 5.12819 6.6918 4.9842C7.0092 4.8606 7.4856 4.7142 8.3628 4.674C9.312 4.6308 9.597 4.6218 12 4.6218Z" fill="#202020"/>
<path id="vector_2" fill-rule="evenodd" clip-rule="evenodd" d="M12.001 15.0018C11.6066 15.0018 11.2161 14.9241 10.8518 14.7732C10.4875 14.6223 10.1564 14.4011 9.87756 14.1223C9.5987 13.8434 9.3775 13.5124 9.22659 13.148C9.07567 12.7837 8.998 12.3932 8.998 11.9988C8.998 11.6045 9.07567 11.214 9.22659 10.8496C9.3775 10.4853 9.5987 10.1542 9.87756 9.87537C10.1564 9.59652 10.4875 9.37532 10.8518 9.2244C11.2161 9.07349 11.6066 8.99581 12.001 8.99581C12.7974 8.99581 13.5613 9.3122 14.1244 9.87537C14.6876 10.4385 15.004 11.2024 15.004 11.9988C15.004 12.7953 14.6876 13.5591 14.1244 14.1223C13.5613 14.6854 12.7974 15.0018 12.001 15.0018ZM12.001 7.37281C10.7741 7.37281 9.59747 7.86019 8.72992 8.72774C7.86238 9.59528 7.375 10.7719 7.375 11.9988C7.375 13.2257 7.86238 14.4023 8.72992 15.2699C9.59747 16.1374 10.7741 16.6248 12.001 16.6248C13.2279 16.6248 14.4045 16.1374 15.2721 15.2699C16.1396 14.4023 16.627 13.2257 16.627 11.9988C16.627 10.7719 16.1396 9.59528 15.2721 8.72774C14.4045 7.86019 13.2279 7.37281 12.001 7.37281ZM17.9728 7.28881C17.9728 7.57883 17.8576 7.85696 17.6525 8.06203C17.4474 8.26711 17.1693 8.38231 16.8793 8.38231C16.5893 8.38231 16.3111 8.26711 16.1061 8.06203C15.901 7.85696 15.7858 7.57883 15.7858 7.28881C15.7858 6.9988 15.901 6.72066 16.1061 6.51559C16.3111 6.31052 16.5893 6.19531 16.8793 6.19531C17.1693 6.19531 17.4474 6.31052 17.6525 6.51559C17.8576 6.72066 17.9728 6.9988 17.9728 7.28881Z" fill="#202020"/>
</g>
</svg>
