<svg width="24" height="24" viewBox="0 0 24 24" fill="none" xmlns="http://www.w3.org/2000/svg">
<g id="icon/LINE">
<path id="Subtract" fill-rule="evenodd" clip-rule="evenodd" d="M11.9992 2.5C17.5129 2.5 21.9985 6.14017 21.9985 10.6145C21.9985 12.4027 21.304 14.0185 19.855 15.6071C17.7575 18.0223 13.0667 20.9642 11.9992 21.4132C10.9603 21.8501 11.0816 21.1649 11.1295 20.8947C11.1308 20.8872 11.1321 20.8801 11.1332 20.8733C11.1585 20.7234 11.2757 20.0176 11.2757 20.0176C11.3094 19.7627 11.3441 19.3663 11.2429 19.1132C11.1314 18.8349 10.6881 18.6905 10.3619 18.6202C5.56145 17.9857 2 14.6258 2 10.6145C2 6.14017 6.48555 2.5 11.9992 2.5ZM9.26346 8.45166H9.972C10.0776 8.45166 10.1632 8.53726 10.1632 8.64285V13.0066C10.1632 13.1122 10.0776 13.1978 9.972 13.1978H9.26346C9.15787 13.1978 9.07227 13.1122 9.07227 13.0066V8.64285C9.07227 8.53726 9.15787 8.45166 9.26346 8.45166ZM14.8003 8.45166H14.0918C14.0421 8.45166 13.9944 8.47141 13.9592 8.50656C13.9241 8.54171 13.9043 8.58939 13.9043 8.6391V11.2315L11.908 8.53507C11.9035 8.52793 11.8981 8.52133 11.8921 8.51539L11.8809 8.50415L11.8706 8.49571H11.8649L11.8546 8.48821H11.849L11.8387 8.48259H11.0449C10.9952 8.48259 10.9475 8.50234 10.9123 8.53749C10.8772 8.57264 10.8574 8.62032 10.8574 8.67003V13.0337C10.8574 13.0835 10.8772 13.1311 10.9123 13.1663C10.9475 13.2014 10.9952 13.2212 11.0449 13.2212H11.7543C11.8041 13.2212 11.8517 13.2014 11.8869 13.1663C11.922 13.1311 11.9418 13.0835 11.9418 13.0337V10.4161L13.9409 13.1153C13.954 13.1344 13.9705 13.1509 13.9896 13.164L14.0009 13.1715H14.0065L14.0159 13.1762H14.0449C14.0615 13.1803 14.0785 13.1825 14.0955 13.1828H14.8003C14.85 13.1828 14.8977 13.163 14.9329 13.1279C14.968 13.0927 14.9878 13.045 14.9878 12.9953V8.64285C14.9883 8.61792 14.9838 8.59315 14.9746 8.56997C14.9654 8.54679 14.9517 8.52569 14.9342 8.50788C14.9167 8.49008 14.8959 8.47593 14.8729 8.46628C14.8499 8.45662 14.8252 8.45166 14.8003 8.45166ZM8.41595 13.1432C8.3808 13.1783 8.33312 13.1981 8.28341 13.1981L8.28622 13.1953H5.47455C5.42484 13.1953 5.37716 13.1755 5.34201 13.1404C5.30686 13.1052 5.28711 13.0575 5.28711 13.0078V8.64692C5.28711 8.5972 5.30686 8.54953 5.34201 8.51437C5.37716 8.47922 5.42484 8.45947 5.47455 8.45947H6.18684C6.23656 8.45947 6.28423 8.47922 6.31939 8.51437C6.35454 8.54953 6.37429 8.5972 6.37429 8.64692V12.1146H8.28341C8.33312 12.1146 8.3808 12.1344 8.41595 12.1695C8.45111 12.2047 8.47085 12.2524 8.47085 12.3021V13.0106C8.47085 13.0603 8.45111 13.108 8.41595 13.1432ZM18.6729 13.1971H15.8613C15.8116 13.1971 15.7639 13.1774 15.7287 13.1422C15.6936 13.1071 15.6738 13.0594 15.6738 13.0097V8.64692C15.6738 8.5972 15.6936 8.54953 15.7287 8.51437C15.7639 8.47922 15.8116 8.45947 15.8613 8.45947H18.6729C18.7227 8.45947 18.7703 8.47922 18.8055 8.51437C18.8406 8.54953 18.8604 8.5972 18.8604 8.64692V9.35639C18.8604 9.40611 18.8406 9.45378 18.8055 9.48894C18.7703 9.52409 18.7227 9.54384 18.6729 9.54384H16.7638V10.2796H18.6729C18.7227 10.2796 18.7703 10.2993 18.8055 10.3345C18.8406 10.3696 18.8604 10.4173 18.8604 10.467V11.183C18.8604 11.2328 18.8406 11.2804 18.8055 11.3156C18.7703 11.3507 18.7227 11.3705 18.6729 11.3705H16.7638V12.1071H18.6729C18.7227 12.1071 18.7703 12.1269 18.8055 12.162C18.8406 12.1972 18.8604 12.2449 18.8604 12.2946V13.0031C18.8613 13.0283 18.8571 13.0534 18.848 13.0769C18.839 13.1004 18.8254 13.1218 18.8079 13.1399C18.7904 13.158 18.7694 13.1724 18.7462 13.1823C18.723 13.1921 18.6981 13.1971 18.6729 13.1971Z" fill="#202020"/>
</g>
</svg>
