<svg width="34" height="37" viewBox="0 0 34 37" fill="none" xmlns="http://www.w3.org/2000/svg">
<g id="Group 21">
<path id="Vector" d="M9.05857 18.997C13.3879 13.4573 16.181 7.20776 16.984 0C17.8568 7.18836 20.5646 13.469 24.9443 18.9815C22.2715 21.6504 19.6142 24.3078 16.9103 27.0116C14.3344 24.3853 11.6926 21.6892 9.05469 18.997H9.05857Z" fill="#947254"/>
<path id="Vector_2" d="M8.03465 20.4131C10.6532 23.0277 13.3027 25.6773 15.9058 28.2842C13.2601 30.9299 10.5911 33.595 7.96094 36.2252C5.36956 33.6338 2.70835 30.9764 0.0859375 28.354C2.71611 25.7239 5.37344 23.0704 8.03076 20.4131H8.03465Z" fill="#947254"/>
<path id="Vector_3" d="M33.9136 28.3813C31.3106 30.9804 28.6649 33.63 26.0502 36.2447C23.4162 33.6067 20.7472 30.9416 18.0977 28.2882C20.7007 25.6852 23.3502 23.0356 25.961 20.4287C28.6028 23.0666 31.2602 25.724 33.9175 28.3813H33.9136Z" fill="#947254"/>
</g>
</svg>
