<svg width="110" height="72" viewBox="0 0 110 72" fill="none" xmlns="http://www.w3.org/2000/svg">
<g id="Layer_1" clip-path="url(#clip0_782_385)">
<path id="Vector" d="M0.0742188 61.0878C0.163443 60.5409 0.264305 59.99 0.341891 59.443C0.62896 57.418 1.25741 55.4978 2.02163 53.6085C3.37163 50.2684 5.18327 47.2038 7.54965 44.4883C8.95396 42.8745 10.5057 41.3887 12.4492 40.4034C13.26 39.9922 14.1251 39.7633 15.0639 39.934C16.1384 40.1279 16.5147 40.9154 16.732 41.8309C17.1238 43.4913 17.1354 45.1672 16.8212 46.843C16.6156 47.937 15.8281 48.2939 14.9902 48.4374C14.6255 48.4995 14.2958 47.9409 14.4432 47.5219C14.6992 46.7926 14.9708 46.0672 15.2462 45.3456C15.5294 44.6124 15.4596 43.8715 15.3044 43.1305C15.1143 42.2189 14.1251 42.2111 13.4268 42.5991C12.3406 43.2003 11.5764 44.1779 10.7734 45.0896C9.36129 46.6878 8.13155 48.4219 7.10741 50.2878C6.42853 51.5331 5.80396 52.8094 5.22982 54.1051C4.5393 55.6684 4.06603 57.3094 3.74017 58.9853C3.62379 59.5788 3.59663 60.1917 3.53844 60.7969C3.49189 61.2702 3.41043 61.7473 3.43758 62.2167C3.51905 63.4736 3.54232 64.7499 4.04663 65.9292C4.94663 68.0357 6.99103 68.3654 8.84146 67.2482C9.55913 66.8137 10.0751 66.1853 10.5367 65.5025C10.5794 65.4366 10.6182 65.3667 10.6764 65.3163C10.9363 65.0835 11.0216 64.5288 11.5492 64.7809C11.8712 64.9361 12.0225 65.8322 11.7703 66.1736C11.3979 66.6857 11.0022 67.19 10.5561 67.6322C9.48155 68.699 8.22077 69.4439 6.71172 69.7736C4.29491 70.3012 2.07982 69.3779 0.904391 67.0891C0.489305 66.2784 0.248788 65.4288 0.175081 64.5249C0.171202 64.4628 0.113012 64.4008 0.0819774 64.3387C0.0819774 63.2525 0.0819774 62.1702 0.0819774 61.084L0.0742188 61.0878Z" fill="white"/>
<path id="Vector_2" d="M97.9463 51.2148C98.5825 50.5359 99.1489 49.8571 99.7968 49.2674C100.34 48.7747 100.945 48.3247 101.585 47.9756C102.652 47.3937 103.412 48.1269 103.602 49.0773C103.719 49.6398 103.703 50.2333 103.75 50.9006C103.924 50.7338 104.064 50.5902 104.211 50.4583C104.917 49.8144 105.592 49.1394 106.337 48.542C107.063 47.9601 107.943 47.7971 108.863 47.8864C109.448 47.9446 109.988 48.6428 109.918 49.4536C109.829 50.4739 109.639 51.4941 109.425 52.4989C108.991 54.5549 108.517 56.6032 108.056 58.6515C107.645 60.4825 107.226 62.3135 106.818 64.1446C106.636 64.9747 106.45 65.8049 106.314 66.6428C106.182 67.442 106.939 68.3264 107.761 68.4273C107.877 68.4428 108.052 68.5747 108.067 68.6756C108.118 68.9976 108.033 69.3079 107.683 69.4282C107.051 69.6454 106.423 69.6221 105.845 69.2691C104.638 68.5282 103.878 67.4963 103.994 66.026C104.083 64.9049 104.242 63.7838 104.456 62.6821C104.886 60.4592 105.367 58.2441 105.845 56.029C106.058 55.0398 106.341 54.07 106.535 53.0769C106.624 52.6114 106.613 52.1109 106.558 51.6377C106.543 51.4864 106.236 51.2497 106.077 51.2614C105.771 51.2808 105.398 51.3661 105.189 51.5678C104.716 52.0217 104.223 52.5066 103.917 53.0769C103.048 54.6907 102.621 56.4635 102.217 58.2402C101.954 59.4002 101.721 60.5833 101.317 61.6967C100.895 62.8527 99.9985 63.6325 98.7028 63.7023C98.1752 63.7295 98.0472 63.5316 98.1713 63.0196C98.7804 60.498 99.3778 57.9726 99.983 55.4471C100.177 54.6441 100.402 53.845 100.549 53.0342C100.619 52.6463 100.592 52.2157 100.511 51.8277C100.433 51.4708 100.057 51.4049 99.8006 51.5717C99.2692 51.9247 98.7261 52.2971 98.3032 52.7665C97.3489 53.8217 96.895 55.1484 96.5575 56.5062C96.158 58.1122 95.8399 59.7338 95.4131 61.3321C95.0368 62.7441 93.8692 63.6829 92.5037 63.7683C92.2787 63.7838 92.0304 63.6674 92.0808 63.3532C92.1739 62.7868 92.2631 62.2165 92.3989 61.6618C92.814 59.9433 93.2407 58.2325 93.6752 56.5178C94.0205 55.1562 94.389 53.8023 94.7187 52.4368C94.8196 52.0101 94.8429 51.5601 94.8623 51.1178C94.8817 50.6872 94.5713 50.5321 94.195 50.7648C94.0515 50.854 93.9312 50.9821 93.78 51.0635C93.6403 51.1372 93.3804 51.2497 93.3455 51.2032C93.2213 51.048 93.1205 50.8346 93.105 50.6368C93.0933 50.4894 93.1981 50.3071 93.3028 50.1868C94.0476 49.3295 94.8739 48.5614 95.9136 48.0571C96.8368 47.6109 97.5312 47.9795 97.667 49.0075C97.7485 49.6127 97.7873 50.2217 97.8493 50.8308C97.861 50.9549 97.9114 51.079 97.9463 51.2226V51.2148Z" fill="white"/>
<path id="Vector_3" d="M20.332 42.1177C19.9402 42.2496 19.5522 42.3892 19.1565 42.5095C18.9315 42.5793 18.6833 42.8547 18.4738 42.5095C18.2759 42.1914 18.4117 41.9043 18.691 41.722C19.7462 41.0353 20.8053 40.3409 22.1359 40.3487C22.7333 40.3487 23.032 40.6707 23.0514 41.2642C23.094 42.4823 22.6945 43.6228 22.4462 44.7905C22.0505 46.672 21.6083 48.5418 21.1932 50.4194C21.166 50.5474 21.1932 50.6909 21.1932 50.9121C21.7169 50.4078 22.1591 49.919 22.6634 49.5039C23.2686 49.0073 23.8777 48.4797 24.5721 48.1345C25.9492 47.4478 27.0626 47.9444 27.2216 49.4961C27.3341 50.5784 27.2294 51.6918 27.1363 52.7858C27.0471 53.8409 26.8841 54.8922 26.6863 55.9319C26.279 58.05 25.6428 60.0828 24.2695 61.8052C23.6837 62.5384 22.9505 63.0853 22.035 63.353C21.8915 63.3957 21.7363 63.3957 21.585 63.4034C21.2281 63.4228 21.0458 63.2327 20.9953 62.8953C20.941 62.5384 21.1583 62.3444 21.457 62.325C21.9613 62.2901 22.2173 61.9642 22.4734 61.6073C23.288 60.4629 23.6216 59.1323 23.8815 57.794C24.1492 56.4246 24.3471 55.0358 24.5216 53.6509C24.6031 53.0108 24.5837 52.3513 24.541 51.7034C24.4906 50.9121 23.7264 50.5668 23.0436 51.0323C22.6673 51.2884 22.3259 51.6258 22.0428 51.9866C20.7936 53.5733 20.1225 55.447 19.5406 57.3401C19.079 58.8414 18.7492 60.3892 18.2798 61.8905C17.9889 62.8177 17.2673 63.3763 16.313 63.5935C15.638 63.7487 15.4596 63.5625 15.6147 62.8914C16.0182 61.1573 16.4216 59.4233 16.8367 57.697C17.5078 54.9116 18.1906 52.1263 18.8695 49.3448C19.3854 47.2345 19.9014 45.1241 20.4057 43.0099C20.46 42.7771 20.4406 42.5289 20.4561 42.2884C20.4134 42.234 20.3747 42.1797 20.332 42.1254V42.1177Z" fill="white"/>
<path id="Vector_4" d="M78.6723 39.6543C79.7507 39.5651 81.0231 40.7133 81.3684 42.1681C81.5662 42.9905 81.7059 43.8284 81.83 44.6625C81.9386 45.3879 81.5042 46.253 80.9766 46.4974C80.4994 46.7146 80.0339 46.4625 79.9951 45.9388C79.9447 45.2172 79.9447 44.4957 79.8787 43.778C79.8167 43.1418 79.7274 42.5056 79.5839 41.8849C79.4908 41.4698 79.2386 41.1362 78.7615 41.0547C77.5007 40.8375 76.2904 41.2021 76.0692 42.781C75.8636 44.2319 76.2283 45.5974 76.5891 46.9551C77.0042 48.534 77.5589 50.078 77.974 51.6569C78.3037 52.906 78.5675 54.1784 78.7537 55.4547C78.905 56.4633 78.9865 57.503 78.9399 58.5194C78.8779 59.7995 78.4938 61.0176 77.6171 62.0107C76.7714 62.9651 75.6658 63.3995 74.4128 63.5082C71.7671 63.7409 70.3046 62.0457 69.5714 60.0284C69.199 58.9965 69.0671 57.9258 69.0981 56.8319C69.1059 56.6069 69.133 56.3702 69.2106 56.1607C69.2688 55.9939 69.4007 55.7418 69.5248 55.7263C69.7382 55.703 70.0408 55.7689 70.1727 55.9163C70.324 56.0909 70.3899 56.3896 70.3899 56.634C70.3899 58.0267 70.6149 59.3651 71.4529 60.5056C72.4033 61.7974 73.2955 62.1582 74.7929 61.6228C75.3865 61.4133 75.7473 60.9556 75.8792 60.331C76.1042 59.2914 76.0072 58.2439 75.755 57.2431C75.2701 55.3073 74.6572 53.4064 74.1257 51.4823C73.6912 49.9189 73.2606 48.3633 73.0744 46.734C72.9037 45.2133 73.1093 43.7819 73.7533 42.4164C74.6145 40.597 76.1042 39.7474 78.6723 39.6504V39.6543Z" fill="white"/>
<path id="Vector_5" d="M54.5467 49.5113C54.8725 48.8945 55.3225 48.3786 55.9432 48.0799C56.2575 47.9286 56.6493 47.9131 57.0023 47.9092C57.0605 47.9092 57.1963 48.3204 57.1613 48.5221C57.076 49.0458 56.9014 49.5501 56.785 50.07C56.3195 52.1415 55.8695 54.2169 55.4079 56.2885C55.2488 57.0139 55.0588 57.7316 54.923 58.4609C54.8881 58.6549 54.9928 58.876 55.0316 59.0816C55.2333 59.0195 55.4661 59.004 55.6251 58.8876C55.8463 58.7286 55.9937 58.4648 56.2109 58.298C56.37 58.1777 56.6609 58.0342 56.7734 58.1001C57.0256 58.2514 57.0876 58.554 56.9169 58.8333C56.7036 59.1902 56.4941 59.5587 56.2381 59.8846C55.5553 60.7575 54.857 61.6225 54.1394 62.4682C53.957 62.6816 53.6932 62.86 53.4333 62.9764C52.5372 63.376 51.8506 63.0734 51.6023 62.0415C51.5402 61.7777 51.5286 61.5023 51.4859 61.1687C51.1329 61.4829 50.8148 61.7816 50.4773 62.0648C49.8411 62.604 49.2049 63.1393 48.3592 63.345C47.37 63.5855 46.695 63.2131 46.3032 62.3325C45.8958 61.4169 45.8066 60.4549 45.9113 59.4385C46.2411 56.1644 47.498 53.2704 49.4182 50.6441C50.0894 49.7247 50.97 49.0148 51.9786 48.4717C52.545 48.1691 53.1657 48.1691 53.7359 48.2738C54.3333 48.3825 54.5971 48.5105 54.4652 49.4376C54.2363 49.5075 54.0036 49.6471 53.7825 49.6277C52.8088 49.5385 52.0872 49.9769 51.5635 50.7178C49.8217 53.1889 48.6346 55.8618 48.7083 58.9691C48.7277 59.8342 49.2863 60.2842 50.1088 59.9855C51.3967 59.52 52.2269 58.5773 52.576 57.2622C52.9406 55.8928 53.2161 54.4962 53.5613 53.123C53.8639 51.9087 54.2092 50.7062 54.535 49.4997L54.5467 49.5113Z" fill="white"/>
<path id="Vector_6" d="M37.9542 50.3654C37.8223 50.4197 37.6904 50.4662 37.5662 50.5322C37.4305 50.602 37.3102 50.7339 37.1705 50.7611C36.9766 50.7999 36.6701 50.8464 36.5887 50.7456C36.48 50.6137 36.4568 50.28 36.5537 50.1404C36.9184 49.6283 37.2986 49.1085 37.7602 48.6895C38.346 48.1619 39.0249 47.7585 39.855 47.6887C41.0227 47.5917 41.4727 48.2473 41.4494 49.221C41.4339 50.0628 41.2671 50.9162 41.0615 51.7387C40.6387 53.4262 40.1382 55.0904 39.6843 56.7701C39.4632 57.5887 39.2305 58.4111 39.0714 59.2412C38.9783 59.73 39.0714 60.2266 39.5331 60.5486C39.9675 60.855 40.3555 60.6882 40.7706 60.4516C41.8257 59.8425 42.5395 58.9076 43.168 57.9184C44.1106 56.4326 44.6421 54.78 45.0223 53.0615C45.4102 51.3042 45.4451 49.5274 45.3598 47.7546C45.2977 46.4938 45.0766 45.2408 44.3512 44.1352C43.5637 42.9326 42.7374 42.6805 41.4029 43.2003C41.1313 43.305 40.7124 43.2856 40.468 43.146C40.208 42.9947 39.9753 42.6456 39.9171 42.3468C39.8395 41.9512 40.2585 41.8309 40.5572 41.7456C42.396 41.2102 44.4093 41.6718 45.4102 43.5882C46.0774 44.8645 46.4305 46.2339 46.4964 47.677C46.5236 48.2279 46.5934 48.7787 46.5818 49.3296C46.5468 51.1296 46.2598 52.8908 45.7826 54.6326C45.3132 56.3395 44.6654 57.9494 43.7111 59.4352C42.908 60.6882 41.9887 61.8443 40.7085 62.655C39.8783 63.1787 38.9783 63.5434 37.9891 63.4891C36.9106 63.4309 36.2318 62.8451 36.0727 61.7783C35.8089 60.0365 36.1813 58.3762 36.5925 56.7197C36.9805 55.1641 37.4654 53.6318 37.8688 52.08C38.0046 51.5563 38.024 51.0016 38.0938 50.4624C38.0512 50.4275 38.0046 50.3964 37.9619 50.3615L37.9542 50.3654Z" fill="white"/>
<path id="Vector_7" d="M91.5547 52.7704C91.4112 55.8817 90.6198 58.698 88.5328 61.0567C87.594 62.1196 86.4845 62.9381 85.1034 63.3532C83.1793 63.9273 81.8022 62.8993 81.1621 61.336C80.6461 60.0791 80.6616 58.7834 80.8052 57.4567C80.9526 56.1222 81.4181 54.9429 82.2793 53.9265C82.8728 53.2282 83.5672 52.6851 84.5603 52.7161C84.9599 52.7278 85.15 52.9334 85.0841 53.3019C85.022 53.6472 84.8823 53.9769 84.7776 54.3105C84.2966 55.8235 83.7612 57.3248 83.3539 58.8571C83.1599 59.5786 83.1328 60.3545 83.4121 61.111C83.7457 62.0148 84.316 62.2515 85.1539 61.7588C85.9375 61.2972 86.4341 60.5679 86.9034 59.823C88.0323 58.023 88.8237 56.0834 89.0836 53.9692C89.2349 52.7549 89.2427 51.5213 89.2892 50.2954C89.3009 50.0161 89.2272 49.7174 89.1379 49.4498C88.9091 48.7709 88.2651 48.4722 87.4815 48.6584C86.4302 48.9067 85.7474 49.6166 85.2392 50.5127C85.15 50.6679 85.2315 50.9239 85.2392 51.1334C85.2509 51.4398 85.3091 51.7502 85.2703 52.0489C85.2276 52.3864 84.5565 52.5571 84.2112 52.3515C83.7069 52.0489 83.5129 51.4864 83.7496 50.8541C84.3897 49.1433 85.631 48.0067 87.3845 47.6498C88.9983 47.32 90.5578 48.0726 91.0349 49.8532C91.2909 50.8036 91.3879 51.7967 91.5586 52.7704H91.5547Z" fill="white"/>
<path id="Vector_8" d="M32.164 60.3701C32.3968 60.2382 32.6102 60.083 32.8507 59.9938C33.0369 59.924 33.3666 59.8503 33.4365 59.9356C33.5528 60.083 33.6265 60.4399 33.5296 60.5563C32.6528 61.6386 31.9972 62.9654 30.527 63.4309C29.8171 63.6559 28.9869 63.1399 28.8201 62.4145C28.5757 61.3477 28.8201 60.3158 29.0606 59.3072C29.5145 57.3986 30.0731 55.5132 30.5425 53.6046C30.783 52.627 30.9304 51.6261 31.1477 50.4856C30.6666 50.633 30.3447 50.73 30.0072 50.8348C29.6503 50.5089 29.5882 50.1481 29.9373 49.7873C30.752 48.9339 31.7179 48.2589 32.808 47.8283C33.5955 47.518 34.2628 48.0145 34.189 48.8757C34.0921 50.0667 33.9291 51.2615 33.6809 52.4292C33.2852 54.299 32.7964 56.1494 32.3386 58.0037C32.2222 58.477 32.0942 58.9542 31.8964 59.3964C31.7179 59.796 31.8227 60.0675 32.1563 60.374L32.164 60.3701Z" fill="white"/>
<path id="Vector_9" d="M32.5383 44.8717C32.5073 44.2821 32.7595 43.7971 33.1202 43.3627C33.5625 42.8312 34.1017 42.8428 34.6603 43.0523C35.1336 43.2308 35.409 43.9989 35.2771 44.5459C35.2189 44.7786 35.2073 45.023 35.1375 45.2519C34.928 45.9308 34.447 46.3691 33.7642 46.4545C33.5043 46.4855 33.1164 46.2799 32.9495 46.0588C32.7013 45.7368 32.5965 45.3023 32.4336 44.9183C32.4685 44.9028 32.5073 44.8872 32.5422 44.8717H32.5383Z" fill="white"/>
<path id="Vector_10" d="M66.1983 54.5938C66.0392 54.9972 65.9268 55.3347 65.7716 55.6489C65.7173 55.7575 65.5466 55.87 65.4302 55.87C63.6186 55.8894 61.8069 55.8856 59.9992 55.8894C59.972 55.8894 59.9449 55.8662 59.8789 55.8313C60.0612 55.4705 60.228 55.1058 60.4298 54.7567C60.4763 54.6713 60.6276 54.6015 60.7285 54.6015C62.5246 54.5938 64.3168 54.5938 66.1983 54.5938Z" fill="white"/>
<path id="Vector_11" d="M65.7273 71.9146C65.9756 70.8439 66.2161 69.8043 66.4683 68.7064C66.092 68.7608 65.8166 68.8034 65.5411 68.8461C65.5334 68.8189 65.5256 68.7957 65.5179 68.7685C65.739 68.6832 65.964 68.5978 66.1851 68.5125C65.7584 68.2952 65.3239 68.2448 64.9282 68.462C64.5015 68.6948 64.3424 69.1099 64.3463 69.525C64.6916 69.4396 65.0329 69.3077 65.3821 69.2845C65.5567 69.2728 65.8398 69.4202 65.9058 69.5715C66.0416 69.8702 65.7312 69.9362 65.5217 70.0254C65.4674 70.0487 65.4092 70.0681 65.3511 70.0914C65.1765 69.5676 64.8429 69.4668 64.5286 69.9245C64.2299 70.3629 64.0476 70.8983 63.8924 71.4181C63.7605 71.8526 63.6092 72.1241 63.0273 71.8914C63.1243 71.4879 63.2213 71.0534 63.3299 70.6189C63.4657 70.0758 63.5704 69.525 63.7528 68.9974C63.97 68.3651 64.5131 68.1401 65.1299 68.0625C65.2502 68.047 65.3782 68.0586 65.5023 68.0625C66.2472 68.0625 66.992 68.1439 67.7291 67.9189C67.7485 67.9694 67.7679 68.0198 67.7873 68.0702C67.5467 68.2177 67.3062 68.3651 67.0657 68.5164C67.1045 68.5202 67.1472 68.5241 67.186 68.528C67.0192 69.3349 66.8523 70.1457 66.6817 70.9526C66.6467 71.1155 66.6041 71.2784 66.5614 71.4414C66.4605 71.8267 66.1786 71.9858 65.7157 71.9185L65.7273 71.9146Z" fill="white"/>
<path id="Vector_12" d="M99.2126 68.1709H99.9187C99.7247 69.0127 99.4493 69.8157 99.3678 70.6381C99.232 72.0075 97.5484 72.4149 96.7532 71.5343C96.4855 71.6894 96.2605 71.8718 96.0006 71.9494C95.795 72.0114 95.632 71.8912 95.7795 71.6235C95.8221 71.5459 95.8648 71.4489 95.8532 71.3636C95.7639 70.5295 96.3148 69.8507 96.4079 69.0632C96.4312 68.8614 96.3769 68.6519 96.2605 68.4502C96.2721 68.4231 96.2799 68.3804 96.2993 68.3726C96.5592 68.2485 96.7726 67.8877 97.1178 68.1205C97.4708 68.361 97.2032 68.6869 97.1489 68.9584C97.0364 69.517 96.8773 70.064 96.7415 70.6149C96.6562 70.9601 96.9626 71.3325 97.4359 71.4567C97.9092 71.5847 98.3747 71.3869 98.4911 70.9718C98.7432 70.0485 98.9682 69.1175 99.2126 68.167V68.1709Z" fill="white"/>
<path id="Vector_13" d="M82.4172 69.0673C82.5685 68.5165 82.4443 68.3652 81.909 68.3342C81.4086 68.3031 80.9935 68.4079 80.687 68.9704C80.912 69.0984 81.1292 69.2613 81.3698 69.3428C81.6917 69.4514 82.037 69.4786 82.3629 69.5639C83.0456 69.7424 83.2861 70.2932 82.9603 70.9255C82.4017 72.004 80.6792 72.1863 79.9344 71.779C79.4767 71.5307 79.3409 70.9799 79.6861 70.7665C79.8956 70.6385 80.206 70.6695 80.3999 70.6385C80.3844 70.9372 80.2719 71.3368 80.3767 71.4066C80.6327 71.5734 80.9935 71.6548 81.3077 71.6432C81.5404 71.6355 81.8314 71.4764 81.9749 71.2902C82.1495 71.0691 82.3279 70.7005 82.2542 70.4794C82.1844 70.2699 81.8081 70.1264 81.5404 70.0217C81.1874 69.8898 80.7995 69.8587 80.4465 69.723C79.8762 69.5096 79.7792 69.0208 80.2254 68.6018C80.4348 68.4079 80.7103 68.2023 80.9741 68.1751C81.5598 68.113 82.1573 68.1247 82.743 68.1751C83.0379 68.2023 83.2861 68.4118 83.2357 68.788C83.1814 69.2031 82.8555 69.0518 82.6189 69.079C82.5607 69.0868 82.4986 69.0712 82.4055 69.0635L82.4172 69.0673Z" fill="white"/>
<path id="Vector_14" d="M16.0636 68.4039C16.1412 68.3612 16.2032 68.3263 16.2653 68.2914C16.5524 68.1207 16.8627 67.8453 17.1614 68.2138C17.3787 68.4815 17.1304 69.0789 16.7968 69.3039C16.6843 69.3815 16.5873 69.525 16.5485 69.6569C16.4282 70.0681 16.3429 70.4871 16.2381 70.9022C16.1256 71.3444 16.3351 71.6509 16.789 71.6897C17.4407 71.7479 18.1817 71.0729 18.2205 70.3785C18.2709 69.5212 18.2399 69.463 17.4834 69.0828C17.7123 68.8268 17.9256 68.497 18.2205 68.2875C18.4222 68.144 18.7403 68.1673 19.008 68.1169L19.105 68.2837C18.8218 68.5397 18.5425 68.7957 18.2399 69.0673C18.9187 69.2729 19.0584 69.8276 18.9537 70.4444C18.8218 71.2048 18.2787 71.6781 17.5726 71.8488C17.1071 71.9651 16.564 71.9496 16.0985 71.8294C15.567 71.6936 15.408 71.2707 15.5321 70.7315C15.6136 70.3707 15.7028 70.01 15.8192 69.6608C15.8696 69.5095 15.9782 69.3544 16.1024 69.2574C16.5834 68.8927 16.5873 68.7065 16.0597 68.4078L16.0636 68.4039Z" fill="white"/>
<path id="Vector_15" d="M32.7119 69.5369H31.9555C31.8042 69.2033 31.9206 68.9434 32.13 68.6912C32.7313 67.9774 33.8718 67.9153 34.5624 68.1908C34.9891 68.3615 35.2296 68.7222 35.2257 69.1683C35.218 70.049 35.0124 70.8752 34.2869 71.4688C33.802 71.8683 33.2356 72.0662 32.6072 71.9188C32.099 71.7985 31.8895 71.3136 32.2309 71.0498C32.3977 70.9218 32.6848 70.949 32.9292 70.9024C32.9292 70.9877 32.9369 71.0188 32.9292 71.0421C32.8787 71.2205 32.8244 71.3951 32.7701 71.5735C32.9835 71.5735 33.2395 71.655 33.3986 71.5619C34.0968 71.1701 34.3102 70.4834 34.4033 69.7425C34.4227 69.5912 34.3839 69.4321 34.4033 69.2808C34.4421 68.9162 34.4033 68.5244 34.027 68.4313C33.705 68.3498 33.2899 68.3925 32.9874 68.5321C32.6188 68.7028 32.5374 69.0946 32.7158 69.533L32.7119 69.5369Z" fill="white"/>
<path id="Vector_16" d="M49.3532 71.9417C49.3959 71.7206 49.4308 71.5305 49.4735 71.3443C49.6481 70.5995 49.8498 69.8624 49.9894 69.1098C50.0321 68.8848 49.9506 68.4504 49.8459 68.4232C49.5821 68.3534 49.1825 68.365 49.0002 68.5241C48.7558 68.7413 48.6666 69.1293 48.4726 69.5211H48.0265C47.8946 68.8189 48.4765 68.1361 49.2718 68.0624C49.489 68.043 49.7101 68.0236 49.9196 68.0624C50.6916 68.2021 50.8778 68.5124 50.7381 69.1642C50.5636 69.9711 50.3269 70.7624 50.1679 71.5732C50.0709 72.0581 49.7606 71.9805 49.3455 71.9456L49.3532 71.9417Z" fill="white"/>
<path id="Vector_17" d="M18.8498 67.2015C18.9041 67.0192 18.9546 66.8601 19.0089 66.6855H19.7421C19.6606 67.0269 19.6102 67.3412 19.5016 67.636C19.4162 67.861 18.8925 67.861 18.6985 67.6321C18.3804 67.2558 17.9731 67.12 17.5037 67.1278C17.1003 67.1317 16.7511 67.2248 16.8093 67.764H16.0296C15.8899 67.3799 16.1266 67.2015 16.4097 67.0502C16.9955 66.7321 18.1205 66.7709 18.8537 67.2015H18.8498Z" fill="white"/>
<path id="Vector_18" d="M51.4179 18.997C55.7473 13.4573 58.5404 7.20776 59.3434 0C60.2162 7.18836 62.924 13.469 67.3037 18.9815C64.6309 21.6504 61.9735 24.3078 59.2697 27.0116C56.6938 24.3853 54.052 21.6892 51.4141 18.997H51.4179Z" fill="white"/>
<path id="Vector_19" d="M50.394 20.4131C53.0126 23.0277 55.6621 25.6773 58.2651 28.2842C55.6194 30.9299 52.9505 33.595 50.3203 36.2252C47.7289 33.6338 45.0677 30.9764 42.4453 28.354C45.0755 25.7239 47.7328 23.0704 50.3901 20.4131H50.394Z" fill="white"/>
<path id="Vector_20" d="M76.273 28.3813C73.67 30.9804 71.0243 33.63 68.4096 36.2447C65.7756 33.6067 63.1066 30.9416 60.457 28.2882C63.06 25.6852 65.7096 23.0356 68.3204 20.4287C70.9622 23.0666 73.6195 25.724 76.2769 28.3813H76.273Z" fill="white"/>
</g>
<defs>
<clipPath id="clip0_782_385">
<rect width="109.85" height="72" fill="white" transform="translate(0.0742188)"/>
</clipPath>
</defs>
</svg>
