<svg width="62" height="39" viewBox="0 0 62 39" fill="none" xmlns="http://www.w3.org/2000/svg">
<g id="Group 68">
<path id="Vector" d="M36.4832 17.0435C36.3251 16.0816 36.0764 15.112 35.7237 14.1405C31.8145 3.4018 18.0379 1 18.0379 1C18.0379 1 9.02822 11.6944 12.9355 22.4331C16.8447 33.1718 30.6213 35.5736 30.6213 35.5736" stroke="#D9D9D9" stroke-width="2" stroke-linejoin="round"/>
<path id="Vector_2" d="M1.08147 13.9593C1.08147 13.9593 -0.362306 27.869 8.90564 34.5558C18.1736 41.2427 30.9189 35.4869 30.9189 35.4869C30.9189 35.4869 32.3627 21.5773 23.0948 14.8904C13.8268 8.20351 1.08147 13.9593 1.08147 13.9593Z" stroke="#D9D9D9" stroke-width="2" stroke-linejoin="round"/>
<path id="Vector_3" d="M60.9189 13.9593C60.9189 13.9593 62.3627 27.869 53.0948 34.5558C43.8268 41.2427 31.0815 35.4869 31.0815 35.4869C31.0815 35.4869 29.6377 21.5773 38.9056 14.8904C48.1736 8.20351 60.9189 13.9593 60.9189 13.9593Z" stroke="#D9D9D9" stroke-width="2" stroke-linejoin="round"/>
<path id="Vector_4" d="M25.5195 17.0435C25.6776 16.0816 25.9263 15.112 26.279 14.1405C30.1882 3.4018 43.9648 1 43.9648 1C43.9648 1 52.9745 11.6944 49.0672 22.4331C45.158 33.1718 31.3814 35.5736 31.3814 35.5736" stroke="#D9D9D9" stroke-width="2" stroke-linejoin="round"/>
</g>
</svg>
