<svg width="24" height="24" viewBox="0 0 24 24" fill="none" xmlns="http://www.w3.org/2000/svg">
<g id="Frame 304">
<path id="Vector 59" d="M10.0045 6.60732L7.76001 4.36283C7.29138 3.8942 6.53158 3.8942 6.06295 4.36283L4.91191 5.51387C4.31123 6.11455 4.07544 6.98942 4.29291 7.8106C4.66723 9.22407 5.28248 10.5624 6.11162 11.7668L6.67713 12.5882C7.95396 14.4429 9.55935 16.0483 11.414 17.3251L12.2354 17.8906C13.4398 18.7198 14.7782 19.335 16.1916 19.7093C17.0128 19.9268 17.8877 19.691 18.4884 19.0903L19.6394 17.9393C20.108 17.4706 20.108 16.7109 19.6394 16.2422L17.3949 13.9977C16.9263 13.5291 16.1665 13.5291 15.6979 13.9977L14.4251 15.2705C12.014 13.9668 10.0355 11.9882 8.73171 9.57717L10.0045 8.30438C10.4731 7.83575 10.4731 7.07595 10.0045 6.60732Z" stroke="white" stroke-width="1.2"/>
</g>
</svg>
