<svg width="24" height="24" viewBox="0 0 24 24" fill="none" xmlns="http://www.w3.org/2000/svg">
<g id="icon/twitter">
<path id="vector" d="M19.9525 7.92071C19.9647 8.09703 19.9647 8.27334 19.9647 8.45128C19.9647 13.8732 15.8371 20.1263 8.28966 20.1263V20.123C6.06013 20.1263 3.8769 19.4876 2 18.2835C2.32419 18.3225 2.65001 18.342 2.97664 18.3428C4.82429 18.3444 6.61913 17.7245 8.07272 16.5829C6.31688 16.5496 4.77717 15.4048 4.23928 13.7334C4.85436 13.8521 5.48812 13.8277 6.09181 13.6627C4.17753 13.276 2.80033 11.5941 2.80033 9.6408C2.80033 9.62293 2.80033 9.60587 2.80033 9.5888C3.37071 9.90649 4.00934 10.0828 4.6626 10.1023C2.85964 8.89735 2.30388 6.49882 3.39265 4.62354C5.47593 7.18701 8.54966 8.74541 11.8493 8.91035C11.5186 7.48521 11.9703 5.99181 13.0364 4.98998C14.689 3.43646 17.2882 3.51608 18.8418 5.16792C19.7607 4.98673 20.6415 4.64954 21.4475 4.17178C21.1412 5.12161 20.5001 5.92843 19.6437 6.44113C20.457 6.34525 21.2517 6.1275 22 5.79518C21.4491 6.62069 20.7552 7.33977 19.9525 7.92071Z" fill="#202020"/>
</g>
</svg>
