<svg width="24" height="24" viewBox="0 0 24 24" fill="none" xmlns="http://www.w3.org/2000/svg">
<g id="icon/whatsapp">
<path id="Subtract" fill-rule="evenodd" clip-rule="evenodd" d="M3.07548 11.9204C3.07723 7.16138 7.09761 3.28906 12.0377 3.28906C14.4352 3.28964 16.6852 4.18964 18.3772 5.82126C20.0698 7.45229 21.0012 9.62216 21 11.9273C20.9983 16.6863 16.9779 20.5592 12.0377 20.5592H12.0343C10.5427 20.5602 9.07309 20.1996 7.75142 19.5082L3 20.7084L4.27161 16.2357C3.48774 14.9275 3.07432 13.4422 3.07548 11.9204ZM14.593 13.0249C14.7986 13.0975 15.8995 13.6195 16.1236 13.7269C16.168 13.7484 16.2095 13.7678 16.2479 13.7857C16.4033 13.8583 16.5083 13.9073 16.5521 13.9795C16.6078 14.0695 16.6078 14.5015 16.4209 15.0049C16.2351 15.5083 15.3397 15.9676 14.91 16.0297C14.5245 16.0849 14.0362 16.1087 13.4996 15.9444C13.1739 15.8445 12.757 15.7115 12.2228 15.4903C10.1268 14.6181 8.70905 12.6626 8.43752 12.2881C8.41803 12.2612 8.40444 12.2425 8.39694 12.2329L8.39515 12.2306C8.27662 12.0783 7.48242 11.058 7.48242 10.0015C7.48242 9.00926 7.98828 8.48893 8.22168 8.24884C8.23797 8.23209 8.25293 8.2167 8.26629 8.20262C8.47184 7.98662 8.71513 7.93262 8.8632 7.93262C9.01358 7.93262 9.16223 7.93436 9.29287 7.94017C9.30897 7.94098 9.32571 7.94093 9.34301 7.94088C9.47364 7.94048 9.63632 7.93998 9.79629 8.3112C9.86566 8.47077 9.97054 8.71653 10.078 8.96839C10.2611 9.39745 10.4518 9.8442 10.4873 9.91262C10.5436 10.02 10.5807 10.1466 10.5064 10.29C10.4943 10.3131 10.4832 10.3348 10.4726 10.3554C10.4171 10.4638 10.3759 10.5442 10.2823 10.65C10.2466 10.6903 10.2097 10.7337 10.1728 10.7771C10.0941 10.8694 10.015 10.9623 9.94668 11.0275C9.83462 11.1349 9.71791 11.2516 9.84855 11.467C9.9792 11.6836 10.4286 12.3896 11.0946 12.961C11.8098 13.5761 12.4318 13.8359 12.7472 13.9676C12.8087 13.9933 12.8586 14.0141 12.8952 14.0317C13.1193 14.1391 13.25 14.1217 13.3812 13.9777C13.5113 13.8343 13.9409 13.3483 14.0896 13.1323C14.2388 12.9163 14.388 12.9535 14.593 13.0249Z" fill="#202020"/>
</g>
</svg>
