<svg width="24" height="24" viewBox="0 0 24 24" fill="none" xmlns="http://www.w3.org/2000/svg">
<g id="icon/youtube">
<path id="vector" fill-rule="evenodd" clip-rule="evenodd" d="M19.792 5.41385C20.6521 5.64492 21.3325 6.32528 21.5635 7.18535C21.9872 8.75147 22 11.9992 22 11.9992C22 11.9992 22 15.2598 21.5764 16.8131C21.3453 17.6732 20.665 18.3535 19.8049 18.5846C18.2516 19.0082 12 19.0082 12 19.0082C12 19.0082 5.74839 19.0082 4.19512 18.5846C3.33504 18.3535 2.65469 17.6732 2.42362 16.8131C2 15.247 2 11.9992 2 11.9992C2 11.9992 2 8.75147 2.41078 7.19819C2.64185 6.33812 3.32221 5.65776 4.18229 5.42669C5.73556 5.00307 11.9872 4.99023 11.9872 4.99023C11.9872 4.99023 18.2388 4.99023 19.792 5.41385ZM15.1836 11.9992L9.99743 15.0031V8.99537L15.1836 11.9992Z" fill="#202020"/>
</g>
</svg>
