<svg width="104" height="240" viewBox="0 0 104 240" fill="none" xmlns="http://www.w3.org/2000/svg">
<g id="Group 66">
<g id="Group 64">
<path id="Vector" d="M45.1012 110.071C42.6085 110.15 40.3788 110.966 38.3925 112.459C35.8669 114.353 34.5777 116.99 33.9266 119.996C33.8608 120.299 33.9069 120.621 33.9003 120.937C33.7424 121.186 33.8937 121.482 33.7885 121.739C33.7096 122.43 33.7161 123.12 33.7819 123.804C33.9003 124.067 33.749 124.363 33.9003 124.626C34.045 126.909 34.9066 128.915 36.2483 130.723C38.8134 134.183 42.3585 135.985 46.5153 136.728C46.7192 136.768 46.9362 136.735 47.1467 136.741C47.3966 136.906 47.686 136.748 47.9425 136.853C48.791 136.939 49.6395 136.939 50.4879 136.853C50.7378 136.748 51.0338 136.906 51.2772 136.735C53.7107 136.544 55.8549 135.59 57.8149 134.196C60.0445 132.611 61.4586 130.408 62.3992 127.895C62.774 126.895 63.0108 125.837 63.1029 124.758C63.2673 124.508 63.1029 124.212 63.2279 123.962C63.3134 123.114 63.3068 122.265 63.2147 121.417C63.1161 121.16 63.2673 120.871 63.1029 120.621C62.728 116.944 61.3797 113.623 59.4 110.531C57.9859 108.322 56.3021 106.329 54.5394 104.395C52.8425 102.534 51.1193 100.692 49.2711 98.9951C46.4495 96.3971 43.7397 93.6873 41.1023 90.9183C37.0639 86.6892 33.4399 82.1247 30.5196 77.0339C28.7701 73.9887 27.3166 70.8119 26.0537 67.5299C24.6331 63.827 23.7386 59.9925 22.923 56.1383C22.581 54.5334 22.5218 52.8694 22.2521 51.2514C22.1337 50.5543 22.1798 49.8505 22.0548 49.1599C21.9364 48.7982 22.1206 48.4101 21.9364 48.0549L21.8904 46.95C21.7786 46.529 21.9562 46.0884 21.7852 45.674C21.7852 44.4375 21.7852 43.201 21.8049 41.9711C21.8049 41.7014 21.7062 41.3331 22.1403 41.3002C22.5218 41.2739 22.6139 41.6356 22.6665 41.8921C22.8704 42.859 23.0348 43.8324 23.1927 44.8058C23.9622 49.4296 25.1724 53.9349 26.7575 58.3416C27.8164 61.2816 29.0266 64.1624 30.4999 66.9248C32.7822 71.2197 35.4591 75.2581 38.5569 79.0137C41.2141 82.2365 44.0883 85.2554 47.1138 88.1296C51.1193 91.9444 55.3287 95.5421 59.229 99.4752C62.5767 102.856 65.5693 106.493 67.5754 110.854C68.6475 113.182 69.4301 115.596 69.7393 118.154C69.7722 118.411 69.8577 118.661 69.9234 118.911C70.0418 119.161 69.8708 119.457 70.0418 119.7C70.055 119.963 70.0615 120.226 70.0747 120.483C70.226 121.114 70.0024 121.765 70.1931 122.397C70.1931 122.745 70.1931 123.094 70.1931 123.449C70.0221 123.811 70.1931 124.205 70.0813 124.574C69.6011 128.625 68.4041 132.407 65.839 135.656C62.8596 139.432 58.979 141.747 54.2895 142.714C53.5529 142.865 52.8031 142.957 52.0598 143.075C51.6389 143.213 51.1851 143.023 50.7641 143.194C50.2117 143.194 49.6592 143.194 49.1067 143.194C48.6858 143.023 48.2385 143.213 47.811 143.075C43.7463 142.733 40.0565 141.352 36.8337 138.866C33.578 136.36 31.2365 133.144 29.954 129.211C29.4936 127.81 29.2239 126.363 29.1516 124.889C29.1055 124.001 29.0792 123.114 29.1647 122.226C29.2305 119.937 29.8685 117.766 30.8814 115.767C32.2363 113.103 34.17 110.919 36.8337 109.413C39.3659 107.979 42.0494 107.249 44.9368 107.401C47.9294 107.559 50.6129 108.578 52.9215 110.538C55.0985 112.386 56.381 114.741 56.9861 117.497C57.0322 117.812 57.0782 118.128 56.9598 118.437C56.6178 118.562 56.5849 118.286 56.5192 118.082C55.8286 115.977 54.7236 114.142 53.0267 112.695C51.4547 111.354 49.6329 110.545 47.6071 110.209C47.2125 110.143 46.8178 109.933 46.3903 110.071C45.9628 109.946 45.5353 109.946 45.1078 110.071H45.1012Z" fill="#3896B5"/>
<path id="Vector_2" d="M75.8498 91.0078L75.8893 92.093C75.955 93.5071 75.9616 94.9212 75.8893 96.3353C75.6196 99.8343 74.7317 103.162 73.2189 106.326C73.1334 106.51 73.0808 106.707 73.015 106.905C72.5809 106.819 72.8375 106.51 72.8177 106.293C72.9361 105.076 72.9032 103.86 72.8177 102.643C72.7125 102.327 72.8638 101.978 72.7125 101.669C72.6993 101.419 72.6862 101.163 72.673 100.913C72.5481 100.663 72.7191 100.367 72.5481 100.124C72.0942 96.4339 71.1932 92.8428 70.1474 89.278C69.095 85.6868 67.727 82.2272 66.2406 78.8005C64.5108 74.8082 62.4718 70.9671 60.4461 67.1195C58.9268 64.2387 57.6376 61.2658 56.48 58.2272C55.283 55.0899 54.2833 51.8868 53.5335 48.6179C53.1125 46.7961 52.7442 44.9544 52.5206 43.0865C52.3956 42.0605 52.2575 41.041 52.1523 40.0084C52.0536 39.7519 52.2115 39.4625 52.0405 39.2192C52.0273 38.9035 52.0076 38.5878 51.9944 38.2721C51.8826 37.9103 52.0668 37.5223 51.8826 37.1737L51.8497 35.753C51.7708 33.8653 51.7774 31.9777 51.8497 30.0901C51.8629 29.577 51.8826 29.0574 51.8958 28.5444C52.0602 28.1761 51.8826 27.7815 52.0142 27.4066C52.0273 27.1435 52.0339 26.8804 52.047 26.6173C52.218 26.374 52.0602 26.0846 52.1589 25.8281C52.4877 21.9804 53.2835 18.2183 54.3293 14.5088C54.7963 12.8579 55.4409 11.2662 55.9868 9.64165C56.092 9.31937 56.2696 9.22071 56.5655 9.26018C56.9141 9.31279 56.9602 9.60219 56.9207 9.8587C56.8155 10.5822 56.6511 11.2925 56.5524 12.0094C56.3485 13.5024 55.9539 14.9692 55.9868 16.4951C55.8158 16.7384 55.9868 17.0344 55.8684 17.2843C55.8552 17.5343 55.8355 17.7908 55.8223 18.0407C55.6776 18.2972 55.8158 18.5932 55.7171 18.8563L55.6776 19.8034C55.4869 20.2112 55.6908 20.6518 55.5592 21.0662C55.5461 21.5924 55.5329 22.1185 55.5198 22.6447C55.3882 24.5455 55.3882 26.4463 55.5198 28.3405C55.5329 28.8667 55.5527 29.3929 55.5658 29.9191C55.6711 30.2808 55.5 30.6754 55.6776 31.0306C55.6908 31.3463 55.7105 31.6554 55.7237 31.9711C55.8223 32.2276 55.6711 32.517 55.8355 32.767C55.8947 35.1742 56.3748 37.5223 56.8549 39.8637C58.2953 46.8553 60.7947 53.485 63.8728 59.8978C65.8657 64.0545 67.9243 68.1718 69.9106 72.3286C72.0087 76.7222 73.9161 81.1881 74.9816 85.9697C75.2907 87.364 75.4946 88.7847 75.7446 90.1856C75.8564 90.4421 75.7051 90.7381 75.8629 90.9946L75.8498 91.0078Z" fill="#3896B5"/>
<path id="Vector_3" d="M71.6335 110.847C71.3639 112.175 71.3639 113.563 70.7851 114.833C70.4694 112.899 70.134 110.985 69.5354 109.143C68.9238 107.256 68.1871 105.408 67.3781 103.586C65.4247 99.1921 63.0043 95.0616 60.2485 91.135C58.6108 88.8002 56.8744 86.5508 55.1051 84.3145C50.8957 78.9936 46.5417 73.7845 43.0952 67.9045C41.1418 64.583 39.5041 61.1169 38.1887 57.4929C37.2481 54.908 36.5049 52.264 35.8867 49.5937C35.4591 47.7455 35.0777 45.8776 34.8869 43.9834C34.8343 43.444 34.7422 42.9047 34.6633 42.3719C34.5383 42.122 34.7093 41.826 34.5383 41.5827C34.5252 41.3722 34.512 41.1617 34.4989 40.9513C34.3936 40.6882 34.5318 40.3922 34.3871 40.1357C34.3739 39.8332 34.3542 39.524 34.341 39.2215C34.2161 38.8597 34.4002 38.4585 34.2226 38.0968C34.2095 37.6298 34.1963 37.1628 34.1832 36.6959C34.1108 34.4399 34.1108 32.1839 34.1832 29.9279C34.1963 29.4675 34.2161 29.0006 34.2292 28.5402C34.3871 28.231 34.2292 27.8824 34.3344 27.5667C34.3476 27.3037 34.3608 27.0406 34.3739 26.7775C34.5449 26.5341 34.3805 26.2447 34.4923 25.9882C34.6173 25.0214 34.7685 24.0611 34.8475 23.0877C34.8738 22.7786 34.9395 22.5813 35.2355 22.5221C35.5973 22.4497 35.7617 22.6602 35.8143 22.989C35.9722 23.9888 35.7354 25.0016 35.9393 25.9948C35.9524 26.567 35.9656 27.1458 35.9722 27.718C36.1169 28.185 35.8998 28.6783 36.0971 29.1387C36.1103 29.4544 36.1234 29.7701 36.1366 30.0858C36.255 30.3883 36.0708 30.7304 36.255 31.0329C36.3339 33.8545 36.8601 36.6235 37.4126 39.3793C38.7214 45.9302 40.9905 52.1456 44.1476 58.0256C46.2457 61.9324 48.6727 65.642 51.3167 69.1936C54.2633 73.1465 57.2888 77.0402 60.2419 80.9931C63.32 85.1169 66.135 89.4053 68.3581 94.0553C69.5091 96.4691 70.6799 98.8829 71.16 101.553C71.3178 102.448 71.4691 103.349 71.627 104.243C71.7256 104.5 71.5744 104.789 71.7388 105.039C71.7519 105.46 71.7651 105.874 71.7848 106.295C71.844 107.131 71.8572 107.966 71.7782 108.801C71.7651 109.216 71.7519 109.63 71.7388 110.044C71.5875 110.294 71.7322 110.59 71.627 110.853L71.6335 110.847Z" fill="#3896B5"/>
<path id="Vector_4" d="M77.7094 91.6211C77.7225 90.9897 77.7357 90.3649 77.7489 89.7335C77.8672 88.7798 77.8738 87.8195 77.7489 86.8658C77.7357 86.1818 77.716 85.4978 77.7028 84.8138C77.591 84.3994 77.7752 83.9587 77.591 83.5444C77.5779 83.2352 77.5647 82.9195 77.5581 82.6104C77.4266 82.3013 77.6107 81.9527 77.4332 81.6567C77.2753 80.1242 77.0517 78.5983 76.8346 77.0659C76.5715 75.2571 76.2558 73.4682 75.8941 71.6792C75.4205 69.3443 74.8549 67.0291 74.1775 64.7403C73.6907 63.096 73.0791 61.4714 72.7634 59.7877C72.395 57.8342 73.2764 56.2294 74.7431 54.9732C75.4271 54.3878 76.2624 54.0261 77.0517 53.5854C77.4923 53.342 77.6305 53.5854 77.7094 53.9011C78.6236 57.5514 79.5444 61.2017 80.4192 64.8652C80.9519 67.0883 81.4123 69.3245 81.7478 71.5871C81.9517 72.9486 82.149 74.31 82.3463 75.6715C82.4778 75.9806 82.2937 76.3292 82.4713 76.6252C82.4844 76.9343 82.4976 77.25 82.5041 77.5592C82.6423 78.0853 82.445 78.6378 82.6225 79.1574C82.6225 80.1966 82.6225 81.2358 82.6225 82.275C82.4384 82.7354 82.6225 83.2287 82.5107 83.6956C82.0569 89.135 80.3074 94.1007 77.0846 98.5271C77.0056 98.6324 76.9333 98.7376 76.8478 98.8363C76.8149 98.8692 76.7557 98.8757 76.6307 98.9218C77.0977 96.8565 77.4463 94.8111 77.591 92.7393C77.7554 92.3709 77.5779 91.9763 77.7028 91.608L77.7094 91.6211Z" fill="#3896B5"/>
<path id="Vector_5" d="M75.5737 48.2156C74.9752 50.3466 73.594 51.6817 71.4893 52.3329C70.95 52.4973 70.7592 52.3921 70.6606 51.8396C70.3777 50.2808 70.0094 48.7352 69.7595 47.1698C69.5622 45.9465 69.4898 44.7099 69.3649 43.4734C69.2662 43.2104 69.4043 42.9144 69.2596 42.6579C69.2399 42.2961 69.2202 41.941 69.207 41.5792C69.0952 41.1649 69.2859 40.7242 69.0952 40.323L69.0557 38.4288C68.9834 37.2251 68.99 36.0215 69.0557 34.8179C69.0689 34.1404 69.0886 33.463 69.1018 32.7855C69.2794 32.3712 69.0886 31.9239 69.2202 31.503C69.2333 31.1873 69.2465 30.8782 69.2596 30.5625C69.4372 30.2599 69.253 29.9113 69.3846 29.6088C69.3977 29.3983 69.4043 29.1878 69.4175 28.9774C69.5885 28.734 69.4175 28.438 69.5424 28.1881C69.9239 24.2944 70.7329 20.4731 71.8576 16.7373C73.5677 11.0612 75.9157 5.65475 79.0793 0.616638C79.1188 0.550867 79.1714 0.491672 79.2109 0.425901C79.3687 0.129928 79.6187 -0.100273 79.9409 0.0444251C80.2698 0.189123 80.1711 0.54429 80.0725 0.813953C79.7502 1.69529 79.395 2.56348 79.0728 3.44482C77.3956 7.98964 76.1065 12.6397 75.2514 17.4147C74.8042 19.9272 74.3569 22.4397 74.2912 24.9982C74.1333 25.3073 74.2977 25.6625 74.1728 25.9782C74.1596 26.3399 74.1465 26.7083 74.1399 27.07C73.9491 27.5896 74.153 28.1355 74.0281 28.6551C73.936 30.3454 73.9491 32.0292 74.0215 33.7195C74.1662 34.2391 73.9557 34.7916 74.1465 35.3046C74.1596 35.6729 74.1793 36.0347 74.1925 36.403C74.2846 36.6661 74.1465 36.9555 74.2977 37.2054C74.3569 39.6784 74.9028 42.0791 75.3303 44.4995C75.4093 44.9599 75.5145 45.4137 75.6066 45.8675C75.7052 46.124 75.5474 46.4134 75.7184 46.6568C75.7184 46.9133 75.7184 47.1632 75.7184 47.4197C75.5474 47.6631 75.7184 47.9656 75.5934 48.2222L75.5737 48.2156Z" fill="#3896B5"/>
</g>
<g id="Group 65">
<path id="Vector_6" d="M0.327891 203.911C1.37366 202.07 2.40628 200.215 3.47178 198.38C6.36573 193.381 9.25968 188.389 12.1734 183.404C14.3964 179.609 16.6524 175.827 18.8887 172.038C19.7568 170.565 20.5987 169.085 21.4537 167.605C21.5392 167.467 21.5195 167.355 21.3682 167.296C21.1907 167.224 21.0065 167.263 20.8223 167.263C15.5803 167.263 10.3318 167.263 5.08976 167.263C4.91218 167.263 4.72144 167.224 4.55043 167.336C3.05084 167.336 1.66963 167.875 0.222656 168.467C0.597555 167.619 0.854064 166.856 1.39339 166.204C2.32735 165.067 3.65594 165.06 4.9056 164.79C5.20815 164.665 5.55674 164.85 5.85271 164.672C6.37888 164.659 6.90506 164.646 7.43123 164.633C11.0026 164.573 14.5675 164.56 18.1389 164.639C20.8421 164.652 23.5519 164.679 26.2551 164.679C26.8996 164.679 27.1101 164.705 26.6892 165.415C22.8284 171.966 19.0005 178.543 15.166 185.114C12.0681 190.422 8.97029 195.729 5.87902 201.037C5.81982 201.142 5.80009 201.274 5.74748 201.432C9.76612 201.432 13.7322 201.432 17.6916 201.432C19.7174 201.432 21.7366 201.432 23.7623 201.432C25.2225 201.432 26.5774 201.109 27.7481 200.182C27.9586 200.767 27.7349 201.451 27.1364 202.129C26.0643 203.346 24.6239 203.747 23.098 203.938C22.9139 203.964 22.7363 203.977 22.5521 203.997C21.901 204.069 21.2433 204.03 20.5856 204.03C14.1071 204.03 7.63512 204.03 1.15661 204.03C0.880373 204.03 0.577823 204.142 0.327891 203.925V203.911Z" fill="#3896B5"/>
<path id="Vector_7" d="M86.4075 194.014C86.3812 191.936 86.6706 189.851 86.1773 187.779C85.5788 185.273 83.9082 183.892 81.5141 183.241C79.3766 182.655 77.3047 182.997 75.0488 183.767C76.3971 181.774 78.2716 181.175 80.3039 180.866C81.034 180.814 81.7641 180.807 82.4941 180.866C84.1976 181.175 85.8024 181.655 87.1968 182.78C88.6438 183.957 89.3344 185.477 89.5975 187.259C89.6764 187.772 89.729 188.292 89.7948 188.805C89.9263 189.541 89.7159 190.291 89.9066 191.021V194.764C89.7882 196.776 89.7816 198.789 89.9066 200.802C89.8803 201.933 90.242 202.946 90.8471 203.88C90.7945 203.985 90.7024 204.011 90.5906 204.011C87.1113 203.992 83.6254 204.057 80.1461 203.972C78.2453 203.893 76.4957 203.386 74.9698 202.189C73.7005 201.196 72.9704 199.861 72.6218 198.361C72.0562 195.967 72.5297 193.725 74.0293 191.751C75.0817 190.364 76.5813 189.778 78.2584 189.541C78.8833 189.482 79.5081 189.476 80.1329 189.541C81.3037 189.811 82.3231 190.37 83.2965 191.258C82.9151 191.291 82.6257 191.324 82.3363 191.35C81.9745 191.469 81.5799 191.284 81.2247 191.462C77.2982 191.528 74.6081 195.79 76.3839 199.144C76.9956 200.302 78.0019 201.005 79.2779 201.216C81.4878 201.591 83.7306 201.387 85.9537 201.407C86.4536 201.407 86.276 201.052 86.2891 200.795C86.4536 199.605 86.3286 198.401 86.3615 197.21C86.3944 196.145 86.3155 195.073 86.401 194.007L86.4075 194.014Z" fill="#3896B5"/>
<path id="Vector_8" d="M51.1416 198.412C51.1416 199.05 51.135 199.688 51.1285 200.326C51.2534 200.642 51.089 200.991 51.2469 201.306C51.2469 202.168 51.556 202.931 52.0164 203.641C52.1677 203.806 52.1085 203.937 51.9309 204.003C51.7862 204.056 51.6218 204.029 51.4639 204.029C48.0043 204.029 44.5447 204.029 41.0851 204.029C40.9536 204.029 40.822 204.029 40.6971 203.983C39.2698 203.917 37.9413 203.569 36.6719 202.878C35.0605 201.997 34.212 200.635 33.7845 198.919C33.6003 198.176 33.6464 197.432 33.5674 196.689C33.4819 195.801 33.5017 194.913 33.5609 194.025C33.6266 192.282 33.6727 190.54 33.5609 188.797C33.4556 188.428 33.6201 188.04 33.4556 187.678C33.3438 186.383 33.1925 185.1 32.8242 183.699C34.5409 184.344 35.8694 185.258 36.6127 186.896C36.9876 187.711 37.0796 188.586 37.2704 189.448C37.3822 189.816 37.2178 190.217 37.3756 190.579C37.3756 191.612 37.3756 192.644 37.3756 193.677C37.2506 195.111 37.2572 196.544 37.3756 197.978C37.2704 200.004 38.7305 201.352 40.9733 201.28C41.2825 201.431 41.631 201.28 41.9467 201.385C43.6239 201.405 45.3011 201.418 46.9783 201.451C47.3466 201.458 47.4913 201.339 47.4781 200.958C47.4584 200.011 47.4781 199.07 47.4781 198.123C47.6031 196.163 47.6031 194.21 47.4781 192.25C47.465 191.046 47.4518 189.836 47.4321 188.632C47.3071 188.001 47.4979 187.35 47.3203 186.725C47.3071 186.258 47.2874 185.791 47.2743 185.324C47.1559 184.962 47.34 184.574 47.1559 184.219C47.1427 183.956 47.1295 183.693 47.1164 183.43C46.998 183.18 47.169 182.884 46.998 182.64C46.9125 182.167 46.8402 181.687 46.7415 181.213C46.7152 181.082 46.656 180.95 46.7415 180.845C46.8599 180.707 46.9717 180.845 47.0769 180.897C49.3 181.818 50.6746 183.37 50.9575 185.837C51.043 186.567 51.043 187.297 51.1219 188.027C51.2205 190.546 51.1482 193.065 51.1614 195.584C51.1614 196.531 51.2074 197.472 51.135 198.419L51.1416 198.412Z" fill="#3896B5"/>
<path id="Vector_9" d="M102.674 200.797C102.628 201.942 103.043 202.948 103.615 203.908C102.891 204.132 102.155 204.007 101.425 203.981C99.866 203.816 98.9386 202.817 98.9386 201.212C98.9254 192.306 98.9254 183.401 98.9123 174.502C98.9123 173.686 98.8728 172.877 98.8465 172.062C98.7347 171.595 98.9189 171.102 98.7347 170.635C98.636 168.556 98.1954 166.57 96.9062 164.623C98.0244 164.906 98.8071 165.393 99.5174 166.011C101.497 167.741 102.339 170.01 102.556 172.562C102.635 174.39 102.563 176.212 102.595 178.04C102.595 178.323 102.523 178.613 102.661 178.889C102.661 182.138 102.661 185.387 102.661 188.636C102.484 189.722 102.622 190.82 102.582 191.905C102.543 193.023 102.642 194.148 102.53 195.266C102.53 196.641 102.53 198.009 102.53 199.383C102.674 199.85 102.457 200.344 102.655 200.804L102.674 200.797Z" fill="#3896B5"/>
<path id="Vector_10" d="M59.9403 170.811C59.7693 168.726 59.3221 166.72 58.25 164.865C60.2955 165.188 63.6696 168.522 63.7551 173.35C63.8274 173.527 63.8011 173.712 63.8011 173.896C63.8011 180.677 63.8011 187.464 63.8011 194.245C63.8011 194.43 63.8274 194.614 63.7551 194.791C63.7551 196.376 63.7551 197.955 63.7551 199.54C63.8866 199.961 63.6959 200.408 63.8735 200.823C63.8209 201.849 64.1366 202.769 64.6496 203.644C64.8403 204.013 64.5904 204.032 64.3405 204.026C63.7682 204.013 63.2026 204.078 62.6304 203.993C61.0782 203.828 60.1311 202.809 60.1311 201.224C60.1113 191.878 60.1113 182.525 60.0982 173.179C60.0982 172.863 60.0784 172.547 60.0719 172.238C59.9272 171.771 60.1442 171.278 59.9469 170.818L59.9403 170.811Z" fill="#3896B5"/>
<path id="Vector_11" d="M5.27287 215.933C4.75985 217.729 4.25999 219.498 3.74697 221.267C3.64173 221.629 3.51677 221.925 3.0169 221.925C2.53677 221.925 2.39865 221.688 2.28684 221.306C1.68831 219.182 1.08979 217.058 0.464962 214.94C0.392613 214.703 0.228184 214.44 0.557042 214.4C0.83986 214.361 1.27395 214.091 1.43181 214.696C1.81986 216.176 2.26053 217.643 2.66831 219.116C2.76697 219.465 2.82616 219.82 3.10241 220.254C3.61542 218.485 4.0824 216.827 4.602 215.183C4.70066 214.874 4.65462 214.354 5.24656 214.354C5.66092 214.354 5.95689 214.368 6.09502 214.894C6.48965 216.4 6.9632 217.886 7.40387 219.379C7.46964 219.596 7.56172 219.813 7.69327 220.175C8.16025 219.241 8.30494 218.34 8.55488 217.479C8.80481 216.617 9.08763 215.769 9.28494 214.9C9.41648 214.308 9.81769 214.256 10.2189 214.4C10.6727 214.558 10.2715 214.913 10.2189 215.117C9.65984 217.143 9.06132 219.162 8.47595 221.182C8.34441 221.629 8.20629 222.01 7.59461 221.931C7.27891 221.892 7.18683 221.813 7.10132 221.497C6.64092 219.787 6.1279 218.097 5.62146 216.4C5.57542 216.249 5.61488 216.012 5.27287 215.94V215.933Z" fill="#3896B5"/>
<path id="Vector_12" d="M66.5637 230.767C65.9652 230.839 65.61 231.141 65.5837 231.766C65.5574 232.358 65.827 232.766 66.3861 232.97C66.8268 233.128 67.2543 233.318 67.7015 233.437C68.6947 233.713 69.2669 234.338 69.359 235.364C69.4379 236.226 68.8723 236.975 67.866 237.429C67.7476 237.482 67.6292 237.534 67.5042 237.587C66.9846 237.659 66.465 237.653 65.9454 237.587C65.4324 237.554 65.0049 237.403 64.6695 236.962C64.4853 236.725 64.2288 236.594 64.5839 236.291C64.8668 236.048 65.0641 235.877 65.439 236.212C66.2348 236.916 66.8991 236.962 67.6884 236.456C68.0764 236.206 68.379 235.884 68.3264 235.377C68.2803 234.904 67.9317 234.66 67.5371 234.502C66.9715 234.272 66.3795 234.121 65.827 233.864C64.7615 233.371 64.4129 232.786 64.5445 231.582C64.6431 230.668 65.2285 230.115 66.1164 229.892C66.2677 229.852 66.419 229.826 66.5703 229.793C66.932 229.714 67.2937 229.721 67.6621 229.793C67.9515 229.905 68.254 229.984 68.5171 230.129C68.7933 230.28 69.2998 230.392 69.0235 230.832C68.7933 231.207 68.379 231.431 67.9515 230.97C67.8528 230.865 67.7476 230.727 67.5634 230.753C67.228 230.674 66.8925 230.622 66.5637 230.773V230.767Z" fill="#3896B5"/>
<path id="Vector_13" d="M36.5933 237.588C35.3305 237.489 34.0677 236.285 33.6599 234.707C33.1995 232.944 34.1926 230.741 35.7909 230.083C36.146 229.938 36.5341 229.886 36.909 229.787C37.2707 229.728 37.6325 229.721 37.9942 229.787C38.5993 229.925 39.1847 230.123 39.6714 230.53C39.8424 230.668 40.2305 230.853 39.8687 231.103C39.6385 231.254 39.4215 231.819 38.994 231.352C38.7243 231.057 38.3428 230.964 38.014 230.767C37.6325 230.636 37.251 230.662 36.8695 230.761C35.8172 230.938 34.9556 231.767 34.6991 232.852C34.3768 234.22 34.7188 235.391 35.8303 236.259C36.6591 236.904 37.5799 236.969 38.5467 236.489C38.7966 236.364 38.9742 236.193 39.1584 236.016C39.507 235.667 39.7832 235.891 40.0397 236.114C40.3949 236.424 40.0003 236.555 39.8556 236.719C39.4544 237.2 38.915 237.45 38.3099 237.588C37.7377 237.66 37.1655 237.66 36.5933 237.588Z" fill="#3896B5"/>
<path id="Vector_14" d="M82.2923 233.28C81.6609 233.477 81.3978 233.944 81.3912 234.569C81.3781 235.509 81.3912 236.45 81.3912 237.39C80.5362 237.535 80.5493 237.535 80.523 236.739C80.4967 235.851 80.6283 234.957 80.4507 234.075C80.4507 233.727 80.2928 233.464 79.9969 233.286C79.714 233.161 79.4312 233.181 79.1484 233.286C78.5104 233.378 78.2473 233.779 78.2342 234.391C78.0566 235.266 78.1881 236.154 78.1618 237.035C78.1487 237.384 78.004 237.476 77.6883 237.476C77.3726 237.476 77.2016 237.39 77.2147 237.035C77.2608 235.522 77.1424 234.01 77.2805 232.503C77.5567 232.589 77.9711 232.286 78.1026 232.832C78.1487 233.03 78.2934 232.813 78.3789 232.76C79.3392 232.168 80.1942 232.188 81.0098 232.924C81.2202 233.115 81.2597 233.069 81.4044 232.911C82.095 232.175 82.9566 232.214 83.7722 232.556C84.5285 232.878 84.7061 233.622 84.7127 234.398C84.7127 235.391 84.7127 236.391 84.7127 237.384C83.8577 237.528 83.8708 237.528 83.8445 236.733C83.8182 235.897 83.9366 235.055 83.7722 234.227C83.759 233.779 83.5288 233.477 83.1342 233.293C82.8645 233.141 82.5817 233.201 82.3055 233.28H82.2923Z" fill="#3896B5"/>
<path id="Vector_15" d="M25.2436 239.131C26.5129 239.177 27.2299 238.091 26.7366 236.921C26.1315 235.48 25.5658 234.027 24.9805 232.573C25.7237 232.317 26.1117 232.573 26.3419 233.323C26.6313 234.257 27.0391 235.151 27.4535 236.217C27.9073 235.112 28.3611 234.165 28.6768 233.172C28.8873 232.507 29.2293 232.376 29.8805 232.58C29.0188 234.724 28.1704 236.868 27.3088 239.006C27.1246 239.466 26.7826 239.775 26.3156 239.953C26.0065 240.012 25.6974 240.018 25.3883 239.953C25.3291 239.939 25.2764 239.926 25.2172 239.92C25.1186 239.657 25.0791 239.394 25.237 239.131H25.2436Z" fill="#3896B5"/>
<path id="Vector_16" d="M43.3523 233.286C42.6551 233.411 42.4052 233.872 42.4183 234.529C42.2539 235.273 42.3789 236.016 42.3526 236.766C42.3262 237.542 42.3394 237.542 41.4844 237.391V229.518C42.3394 229.373 42.3394 229.373 42.346 230.142C42.346 230.892 42.346 231.642 42.3526 232.398C42.3526 232.55 42.2342 232.786 42.5433 232.813C44.1087 231.912 45.3057 232.326 45.7858 233.944C45.8648 234.878 45.8056 235.819 45.8187 236.753C45.8253 237.542 45.8187 237.542 44.9571 237.391C44.8979 236.338 45.0295 235.286 44.8322 234.227C44.7466 233.766 44.602 233.484 44.2205 233.28C43.9311 233.194 43.6417 233.161 43.3589 233.286H43.3523Z" fill="#3896B5"/>
<path id="Vector_17" d="M53.3406 221.98C52.8802 221.96 52.479 221.809 52.2422 221.395C52.1567 221.244 51.7686 221.119 52.1238 220.856C52.354 220.685 52.5842 220.474 52.867 220.763C53.3011 221.198 53.8273 221.283 54.3863 221.092C54.6297 221.007 54.9586 220.948 54.9257 220.533C54.8994 220.198 54.7152 219.994 54.4324 219.895C53.972 219.731 53.4984 219.619 53.038 219.461C52.4724 219.27 52.2488 218.863 52.2225 218.271C52.1961 217.652 52.4132 217.218 52.9986 216.975C53.801 216.646 54.5771 216.666 55.3203 217.113C55.5505 217.251 55.8794 217.488 55.6031 217.797C55.4124 218.008 55.1098 218.343 54.7612 217.916C54.6494 217.777 54.5179 217.613 54.3074 217.639C53.8996 217.698 53.3274 217.514 53.1893 218.08C53.0446 218.698 53.6497 218.738 54.0312 218.896C54.1693 218.955 54.3403 218.922 54.4982 218.955C55.4124 219.152 55.978 219.711 55.9846 220.421C55.9912 221.125 55.465 221.704 54.5771 221.974C54.1627 222.026 53.7484 222.026 53.3406 221.974V221.98Z" fill="#3896B5"/>
<path id="Vector_18" d="M80.7665 221.98C80.3587 221.966 79.9838 221.868 79.7931 221.467C79.701 221.276 79.2143 221.243 79.5234 220.894C79.7602 220.625 80.0562 220.579 80.3587 220.809C80.7731 221.131 81.2466 221.289 81.7465 221.118C82.003 221.026 82.3845 220.96 82.3516 220.526C82.3253 220.164 82.1214 219.967 81.7794 219.881C81.3584 219.77 80.9375 219.671 80.5363 219.52C79.9575 219.303 79.6023 218.934 79.6615 218.231C79.7207 217.56 79.9575 217.099 80.6284 216.895C81.3979 216.659 82.1214 216.724 82.7988 217.152C83.0159 217.29 83.2724 217.527 83.0356 217.79C82.8383 218 82.5489 218.349 82.2003 217.935C82.0359 217.737 81.8386 217.671 81.5821 217.671C81.1809 217.671 80.727 217.619 80.6152 218.112C80.4968 218.638 80.9638 218.737 81.3387 218.855C81.5097 218.908 81.6939 218.921 81.8715 218.954C82.7923 219.138 83.3645 219.664 83.4105 220.368C83.4566 221.092 82.9238 221.703 82.003 221.986C81.5886 222.039 81.1743 222.039 80.7665 221.986V221.98Z" fill="#3896B5"/>
<path id="Vector_19" d="M46.6962 221.979C46.2884 221.966 45.9135 221.867 45.7228 221.466C45.6307 221.276 45.144 221.243 45.4531 220.894C45.6899 220.624 45.9924 220.578 46.2884 220.815C46.7291 221.157 47.2224 221.302 47.7485 221.091C47.9853 220.993 48.3207 220.92 48.2813 220.526C48.2484 220.197 48.0642 219.993 47.7748 219.901C47.3407 219.756 46.8803 219.684 46.4528 219.519C45.9135 219.316 45.5452 218.987 45.5912 218.303C45.6307 217.632 45.8346 217.132 46.4989 216.915C47.2552 216.665 47.9919 216.698 48.6825 217.125C48.9193 217.277 49.2284 217.507 48.9587 217.809C48.768 218.02 48.4589 218.349 48.1169 217.921C48.0511 217.842 47.9656 217.724 47.8867 217.724C47.4197 217.711 46.7883 217.435 46.5712 218.026C46.341 218.664 46.9987 218.737 47.4131 218.908C47.5512 218.967 47.7222 218.934 47.8801 218.967C48.7483 219.158 49.3007 219.684 49.3534 220.361C49.406 221.072 48.8535 221.71 47.9458 221.979C47.5315 222.032 47.1171 222.032 46.7093 221.979H46.6962Z" fill="#3896B5"/>
<path id="Vector_20" d="M30.7345 221.933C30.1623 221.998 29.9255 221.801 29.9519 221.17C29.9979 220.005 29.9519 218.835 29.9387 217.671C29.8927 217.407 29.8335 217.144 29.9782 216.888C30.2478 216.986 30.649 216.651 30.7937 217.197C30.8529 217.427 31.0174 217.157 31.1226 217.105C32.4643 216.427 33.4904 216.717 34.2533 217.999C34.3059 219.315 34.4046 220.624 34.2007 221.933C33.6022 222.005 33.3786 221.781 33.4246 221.15C33.4772 220.341 33.4641 219.525 33.3917 218.716C33.3325 217.973 32.9313 217.605 32.1026 217.651C31.3396 217.697 31.0634 218.131 30.9121 218.756C30.8858 218.854 30.9121 218.966 30.9055 219.071C30.7477 219.769 30.8792 220.479 30.8266 221.176C30.8069 221.426 30.9253 221.702 30.728 221.933H30.7345Z" fill="#3896B5"/>
<path id="Vector_21" d="M51.4185 237.363C50.7607 235.772 50.1096 234.18 49.4453 232.568C50.1491 232.371 50.5832 232.509 50.8068 233.305C51.0304 234.101 51.4185 234.851 51.721 235.627C51.7802 235.778 51.8197 235.943 52.0104 235.916C52.1551 235.897 52.1683 235.739 52.2143 235.614C52.53 234.778 52.8852 233.956 53.168 233.114C53.3719 232.503 53.7402 232.384 54.3256 232.575C53.7205 234.173 53.1154 235.772 52.5103 237.376C52.142 237.521 51.7802 237.541 51.4185 237.37V237.363Z" fill="#3896B5"/>
<path id="Vector_22" d="M101.413 219.349C101.413 219.059 101.4 218.77 101.413 218.481C101.446 217.967 101.446 217.514 100.71 217.645C100.453 217.691 100.328 217.547 100.328 217.277C100.328 217.027 100.4 216.843 100.677 216.889C101.354 217.007 101.466 216.652 101.42 216.086C101.4 215.83 101.295 215.488 101.782 215.475C102.229 215.468 102.354 215.718 102.288 216.073C102.15 216.863 102.578 216.941 103.189 216.889C103.419 216.869 103.735 216.784 103.755 217.218C103.775 217.665 103.492 217.691 103.196 217.639C102.367 217.494 102.222 217.915 102.288 218.619C102.341 219.165 102.301 219.724 102.301 220.276C102.301 220.934 102.578 221.263 103.268 221.164C103.479 221.131 103.755 221.013 103.775 221.421C103.788 221.73 103.702 221.881 103.367 221.96C102.111 222.249 101.446 221.756 101.413 220.46C101.4 220.092 101.413 219.724 101.413 219.355V219.349Z" fill="#3896B5"/>
<path id="Vector_23" d="M21.4239 221.928H20.7136C20.536 221.79 20.6018 221.593 20.6018 221.415C20.6018 219.107 20.6018 216.798 20.6018 214.489C20.6018 214.161 20.5031 213.799 21.0687 213.799C21.6344 213.799 21.5357 214.161 21.5357 214.489C21.5357 216.798 21.5357 219.107 21.5357 221.415C21.5357 221.593 21.6015 221.79 21.4239 221.928Z" fill="#3896B5"/>
<path id="Vector_24" d="M26.1505 221.928H25.4401C25.2625 221.79 25.3283 221.593 25.3283 221.415C25.3283 219.107 25.3283 216.798 25.3283 214.489C25.3283 214.161 25.2297 213.799 25.7953 213.799C26.3609 213.799 26.2623 214.161 26.2623 214.489C26.2623 216.798 26.2623 219.107 26.2623 221.415C26.2623 221.593 26.328 221.79 26.1505 221.928Z" fill="#3896B5"/>
<path id="Vector_25" d="M95.0956 216.881C95.3719 216.967 95.7797 216.664 95.9112 217.203C95.9638 217.414 96.1019 217.203 96.1874 217.151C96.661 216.861 97.174 216.736 97.7265 216.736C97.9896 217.032 97.8844 217.355 97.7857 217.67C96.3913 217.473 95.9638 218.256 95.9244 219.446C95.9046 220.018 95.8717 220.597 95.9309 221.163C96.0033 221.814 95.7139 221.991 95.1417 221.926C94.9049 221.485 95.0364 221.011 95.0364 220.551C95.0496 219.328 94.9509 218.104 95.0891 216.881H95.0956Z" fill="#3896B5"/>
<path id="Vector_26" d="M47.4766 237.364C47.4766 235.943 47.4831 234.529 47.4897 233.108C47.4897 232.786 47.4437 232.49 47.9435 232.49C48.4434 232.49 48.3974 232.786 48.3974 233.108C48.3974 234.529 48.4039 235.943 48.4105 237.364C48.1014 237.542 47.7857 237.542 47.4766 237.364Z" fill="#3896B5"/>
<path id="Vector_27" d="M47.7283 229.973C48.2808 229.999 48.5439 230.196 48.5504 230.591C48.557 231.038 48.2545 231.209 47.8335 231.229C47.3139 231.249 47.3271 230.887 47.3205 230.545C47.3139 230.17 47.4718 229.946 47.7283 229.973Z" fill="#3896B5"/>
<path id="Vector_28" d="M68.6047 221.696C68.1246 220.894 67.6576 220.078 67.138 219.302C66.7894 218.776 66.6316 218.454 67.4077 218.138C68.3087 217.776 68.6179 216.961 68.4403 215.915C68.3219 215.211 67.6773 214.698 66.8486 214.508C65.9147 214.284 64.9741 214.415 64.0336 214.356C63.6455 214.33 63.5469 214.494 63.5469 214.856C63.56 217.033 63.56 219.217 63.5469 221.394C63.5469 221.742 63.6192 221.92 64.0204 221.913C64.4414 221.913 64.4808 221.696 64.4808 221.367C64.4808 220.447 64.5071 219.532 64.5269 218.618C64.8689 218.487 65.2175 218.487 65.5595 218.618C66.0857 219.473 66.6908 220.295 67.1183 221.203C67.4669 221.94 67.947 221.999 68.5981 221.854C68.5981 221.795 68.6179 221.736 68.5981 221.696H68.6047ZM64.8426 217.605C64.0599 217.303 64.619 216.481 64.494 215.902C64.4348 215.626 64.3756 215.231 64.8886 215.244C65.1254 215.244 65.3622 215.244 65.5924 215.244C65.5924 215.238 65.5924 215.231 65.5924 215.218C65.9278 215.251 66.2764 215.244 66.6053 215.323C67.138 215.455 67.4669 215.81 67.4866 216.382C67.5063 216.954 67.2169 217.316 66.6842 217.494C66.0725 217.697 65.3819 217.809 64.836 217.599L64.8426 217.605Z" fill="#3896B5"/>
<path id="Vector_29" d="M22.4551 232.464C21.5804 232.194 20.8437 232.497 20.0413 232.931V229.517C19.1863 229.372 19.1797 229.372 19.1797 230.162C19.1797 232.352 19.1797 234.549 19.1797 236.745C19.1797 237.541 19.1797 237.541 20.0413 237.39C20.1071 237.245 19.8506 236.699 20.3899 237.14C20.7911 237.469 21.337 237.653 21.8171 237.666C23.1326 237.706 24.2441 236.614 24.4283 235.239C24.5993 233.996 23.764 232.871 22.4551 232.47V232.464ZM21.7514 236.765C20.7779 236.752 20.0479 235.982 20.0479 234.976C20.0479 233.963 20.7779 233.181 21.7382 233.161C22.7314 233.135 23.5075 233.93 23.514 234.963C23.514 236.015 22.7708 236.778 21.7514 236.765Z" fill="#3896B5"/>
<path id="Vector_30" d="M14.0732 219.652C14.9677 219.639 15.8557 219.639 16.7502 219.652C17.1514 219.652 17.3684 219.547 17.2237 219.106C16.9606 217.535 16.1385 216.732 14.7967 216.758C13.501 216.778 12.4618 217.607 12.3369 218.686C12.1133 220.639 12.7447 221.691 14.2114 221.981C14.6783 222.04 15.1453 222.06 15.6123 221.968C16.0201 221.849 16.3687 221.612 16.691 221.349C16.8225 221.244 17.1251 221.093 16.8817 220.876C16.691 220.711 16.4936 220.382 16.1516 220.593C16.0004 220.685 15.8885 220.856 15.7307 220.942C15.2045 221.237 14.6389 221.323 14.093 221.014C13.6128 220.744 13.1788 220.396 13.3037 219.731C13.5471 219.573 13.8167 219.659 14.0732 219.652ZM13.5997 218.08C14.2377 217.304 15.6189 217.41 16.0924 218.265C16.3489 218.725 16.3161 219.001 15.6912 218.949C15.3821 218.922 15.0664 218.949 14.7507 218.949C14.4876 218.949 14.2245 218.962 13.968 218.949C13.7444 218.935 13.4287 219.074 13.3169 218.857C13.1656 218.567 13.4287 218.311 13.6063 218.1L13.5997 218.08Z" fill="#3896B5"/>
<path id="Vector_31" d="M39.4248 219.652C40.3193 219.639 41.2072 219.639 42.1017 219.652C42.5029 219.652 42.72 219.547 42.5753 219.106C42.3122 217.535 41.49 216.732 40.1483 216.758C38.8526 216.778 37.8134 217.607 37.6884 218.686C37.4648 220.639 38.0962 221.691 39.5629 221.981C40.0299 222.04 40.4969 222.06 40.9639 221.968C41.3717 221.849 41.7202 221.612 42.0425 221.349C42.1741 221.244 42.4766 221.093 42.2333 220.876C42.0425 220.711 41.8452 220.382 41.5032 220.593C41.3519 220.685 41.2401 220.856 41.0823 220.942C40.5561 221.237 39.9904 221.323 39.4445 221.014C38.9644 220.744 38.5303 220.396 38.6553 219.731C38.8986 219.573 39.1683 219.659 39.4248 219.652ZM38.9513 218.08C39.5892 217.304 40.9704 217.41 41.444 218.265C41.7005 218.725 41.6676 219.001 41.0428 218.949C40.7337 218.922 40.418 218.949 40.1023 218.949C39.8392 218.949 39.5761 218.962 39.3196 218.949C39.096 218.935 38.7803 219.074 38.6684 218.857C38.5172 218.567 38.7802 218.311 38.9578 218.1L38.9513 218.08Z" fill="#3896B5"/>
<path id="Vector_32" d="M73.5029 219.652C74.3974 219.639 75.2853 219.639 76.1798 219.652C76.581 219.652 76.7981 219.547 76.6534 219.106C76.3903 217.535 75.5682 216.732 74.2264 216.758C72.9307 216.778 71.8915 217.607 71.7666 218.686C71.5429 220.639 72.1743 221.691 73.6411 221.981C74.108 222.04 74.575 222.06 75.042 221.968C75.4498 221.849 75.7984 221.612 76.1207 221.349C76.2522 221.244 76.5547 221.093 76.3114 220.876C76.1206 220.711 75.9233 220.382 75.5813 220.593C75.43 220.685 75.3182 220.856 75.1604 220.942C74.6342 221.237 74.0686 221.323 73.5227 221.014C73.0425 220.744 72.6084 220.396 72.7334 219.731C72.9768 219.573 73.2464 219.659 73.5029 219.652ZM73.0294 218.08C73.6674 217.304 75.0486 217.41 75.5221 218.265C75.7786 218.725 75.7457 219.001 75.1209 218.949C74.8118 218.922 74.4961 218.949 74.1804 218.949C73.9173 218.949 73.6542 218.962 73.3977 218.949C73.1741 218.935 72.8584 219.074 72.7466 218.857C72.5953 218.567 72.8584 218.311 73.036 218.1L73.0294 218.08Z" fill="#3896B5"/>
<path id="Vector_33" d="M90.1859 216.982C89.0876 216.6 87.805 216.614 86.8974 217.804C86.2988 218.587 86.2923 219.507 86.5422 220.323C86.8053 221.191 87.4104 221.934 88.489 221.98C88.9034 222.046 89.3178 222.033 89.7321 221.98C91.0278 221.586 91.771 220.672 91.7908 219.442C91.8105 218.363 91.1594 217.324 90.1859 216.982ZM89.0876 221.185C88.1207 221.171 87.3907 220.415 87.3775 219.415C87.3709 218.389 88.147 217.554 89.1073 217.554C90.0807 217.554 90.8502 218.37 90.8437 219.402C90.8305 220.474 90.1202 221.198 89.081 221.185H89.0876Z" fill="#3896B5"/>
<path id="Vector_34" d="M73.0971 232.362C71.6304 232.323 70.4596 233.283 70.532 234.921C70.4465 236.697 71.5514 237.526 73.0182 237.67C74.4586 237.808 75.8924 236.453 75.8332 235.026C75.7674 233.435 74.9782 232.415 73.0971 232.362ZM73.1365 236.763C72.1763 236.743 71.4528 235.967 71.4528 234.954C71.4528 233.928 72.2486 233.125 73.2352 233.158C74.1889 233.185 74.9255 233.98 74.919 234.974C74.9124 236.019 74.1494 236.782 73.1365 236.756V236.763Z" fill="#3896B5"/>
<path id="Vector_35" d="M59.4457 234.417C59.3931 233.694 59.3273 232.918 58.4986 232.582C57.5449 232.207 56.6044 232.293 55.7099 232.76C55.5455 232.845 55.3284 233.029 55.506 233.266C55.6507 233.464 55.8151 233.72 56.1506 233.529C56.3545 233.411 56.5452 233.26 56.8017 233.299C57.17 233.174 57.5383 233.168 57.9067 233.299C58.2816 233.503 58.5183 233.799 58.5118 234.246C58.2289 234.437 57.8935 234.246 57.6041 234.371C57.295 234.411 56.9924 234.444 56.6899 234.496C55.9796 234.621 55.3284 234.825 55.1969 235.68C55.1311 235.937 55.1443 236.193 55.1969 236.45C55.3547 237.127 55.7625 237.476 56.4728 237.568C57.2029 237.666 57.8212 237.509 58.3934 237.088C58.4657 237.035 58.5381 236.976 58.617 236.923C58.6499 237.081 58.6762 237.245 58.7091 237.403C59.0051 237.456 59.3273 237.673 59.5312 237.252C59.5115 236.305 59.5312 235.358 59.4589 234.424L59.4457 234.417ZM57.0911 236.825C56.6307 236.805 56.144 236.719 56.1177 236.042C56.0914 235.391 56.7162 235.075 57.9724 235.055C58.3145 235.055 58.5907 235.055 58.5578 235.535C58.5118 236.279 57.9461 236.825 57.0911 236.831V236.825Z" fill="#3896B5"/>
<path id="Vector_36" d="M63.557 234.441H60.8867V235.356H63.557V234.441Z" fill="#3896B5"/>
</g>
</g>
</svg>
