<svg width="96" height="72" viewBox="0 0 96 72" fill="none" xmlns="http://www.w3.org/2000/svg">
<g id="Group 59">
<g id="Group 57">
<path id="Vector" d="M12.1733 55.3453C10.9198 55.385 9.79868 55.7951 8.79991 56.5458C7.52994 57.4983 6.88173 58.8245 6.55432 60.3358C6.52125 60.488 6.54439 60.65 6.54109 60.8088C6.46171 60.9345 6.53778 61.0833 6.48487 61.2123C6.44518 61.5595 6.44849 61.9068 6.48156 62.2507C6.54109 62.383 6.46502 62.5318 6.54109 62.6641C6.61385 63.8117 7.04709 64.8204 7.72176 65.7299C9.01157 67.4695 10.7942 68.3756 12.8843 68.7493C12.9868 68.7692 13.096 68.7526 13.2018 68.756C13.3275 68.8386 13.473 68.7593 13.602 68.8122C14.0286 68.8552 14.4552 68.8552 14.8819 68.8122C15.0075 68.7593 15.1564 68.8386 15.2787 68.7526C16.5024 68.6567 17.5805 68.1772 18.5661 67.4761C19.6872 66.679 20.3983 65.5711 20.8712 64.3078C21.0597 63.8051 21.1788 63.2726 21.2251 62.7303C21.3078 62.6046 21.2251 62.4558 21.2879 62.3301C21.3309 61.9035 21.3276 61.4768 21.2813 61.0502C21.2317 60.9212 21.3078 60.7757 21.2251 60.65C21.0366 58.8013 20.3586 57.1312 19.3631 55.5768C18.6521 54.4656 17.8054 53.4635 16.9191 52.4912C16.0658 51.5553 15.1993 50.6293 14.27 49.776C12.8512 48.4697 11.4887 47.1071 10.1625 45.7148C8.13185 43.5882 6.30958 41.2931 4.84119 38.7333C3.96147 37.2021 3.23058 35.6047 2.59559 33.9544C1.88124 32.0925 1.43146 30.1644 1.02136 28.2263C0.84939 27.4194 0.819625 26.5827 0.68403 25.7691C0.6245 25.4185 0.647651 25.0647 0.584814 24.7174C0.525284 24.5355 0.617886 24.3404 0.525284 24.1618L0.502134 23.6062C0.445911 23.3945 0.535206 23.173 0.449219 22.9646C0.449219 22.3429 0.449218 21.7211 0.45914 21.1027C0.45914 20.9671 0.409533 20.7819 0.627808 20.7653C0.819626 20.7521 0.865927 20.934 0.892384 21.063C0.994907 21.5491 1.07759 22.0386 1.15696 22.5281C1.5439 24.853 2.15243 27.1184 2.94946 29.3343C3.48192 30.8126 4.09045 32.2611 4.83126 33.6501C5.97886 35.8097 7.3249 37.8404 8.88259 39.7288C10.2187 41.3493 11.6639 42.8673 13.1853 44.3125C15.1993 46.2307 17.316 48.0397 19.2771 50.0174C20.9605 51.7173 22.4653 53.5462 23.474 55.7389C24.013 56.9096 24.4066 58.1233 24.562 59.4098C24.5786 59.5388 24.6216 59.6645 24.6546 59.7902C24.7142 59.9158 24.6282 60.0647 24.7142 60.187C24.7208 60.3193 24.7241 60.4516 24.7307 60.5806C24.8068 60.8981 24.6943 61.2255 24.7902 61.543C24.7902 61.7183 24.7902 61.8935 24.7902 62.0721C24.7043 62.254 24.7902 62.4525 24.734 62.6377C24.4926 64.6749 23.8907 66.5765 22.6009 68.2103C21.1027 70.1086 19.1515 71.2727 16.7934 71.7589C16.423 71.8349 16.046 71.8812 15.6723 71.9408C15.4606 72.0102 15.2324 71.9143 15.0208 72.0003C14.743 72.0003 14.4651 72.0003 14.1873 72.0003C13.9757 71.9143 13.7508 72.0102 13.5358 71.9408C11.492 71.7688 9.63663 71.0743 8.0161 69.8242C6.37903 68.5641 5.20167 66.9469 4.55677 64.9692C4.32526 64.2648 4.18967 63.5372 4.15329 62.7964C4.13014 62.3499 4.11691 61.9035 4.1599 61.457C4.19297 60.3061 4.51377 59.2147 5.02308 58.2093C5.70437 56.8699 6.67668 55.7719 8.0161 55.0146C9.28937 54.2936 10.6387 53.9265 12.0906 54.0026C13.5954 54.082 14.9447 54.5946 16.1055 55.5801C17.2002 56.5094 17.8451 57.6934 18.1494 59.0791C18.1725 59.2379 18.1957 59.3966 18.1361 59.552C17.9642 59.6149 17.9476 59.476 17.9146 59.3735C17.5673 58.3152 17.0117 57.3925 16.1584 56.6649C15.368 55.9902 14.4519 55.5834 13.4333 55.4148C13.2349 55.3817 13.0364 55.2759 12.8215 55.3453C12.6065 55.2825 12.3915 55.2825 12.1766 55.3453H12.1733Z" fill="white"/>
<path id="Vector_2" d="M27.6356 45.7606L27.6554 46.3062C27.6885 47.0173 27.6918 47.7283 27.6554 48.4394C27.5198 50.1988 27.0734 51.8722 26.3127 53.463C26.2697 53.5556 26.2433 53.6548 26.2102 53.754C25.9919 53.711 26.1209 53.5556 26.111 53.4465C26.1705 52.8346 26.154 52.2228 26.111 51.611C26.0581 51.4522 26.1341 51.277 26.0581 51.1215C26.0514 50.9958 26.0448 50.8669 26.0382 50.7412C25.9754 50.6155 26.0614 50.4667 25.9754 50.3443C25.7472 48.489 25.2941 46.6833 24.7682 44.8908C24.2391 43.085 23.5512 41.3455 22.8038 39.6224C21.934 37.615 20.9087 35.6836 19.8901 33.7488C19.1262 32.3003 18.4779 30.8054 17.8959 29.2775C17.294 27.7 16.7913 26.0894 16.4142 24.4457C16.2026 23.5296 16.0174 22.6036 15.9049 21.6644C15.8421 21.1485 15.7726 20.6358 15.7197 20.1166C15.6701 19.9876 15.7495 19.8421 15.6635 19.7197C15.6569 19.561 15.647 19.4023 15.6404 19.2435C15.5841 19.0616 15.6767 18.8665 15.5841 18.6912L15.5676 17.9769C15.5279 17.0277 15.5312 16.0785 15.5676 15.1294C15.5742 14.8714 15.5841 14.6101 15.5908 14.3522C15.6734 14.167 15.5841 13.9685 15.6503 13.78C15.6569 13.6477 15.6602 13.5155 15.6668 13.3832C15.7528 13.2608 15.6734 13.1153 15.723 12.9863C15.8884 11.0516 16.2886 9.15989 16.8144 7.29464C17.0492 6.46453 17.3733 5.66419 17.6478 4.84732C17.7007 4.68527 17.79 4.63566 17.9389 4.6555C18.1141 4.68196 18.1373 4.82748 18.1175 4.95646C18.0645 5.32025 17.9819 5.67742 17.9323 6.03791C17.8297 6.78864 17.6313 7.52614 17.6478 8.29341C17.5618 8.41578 17.6478 8.5646 17.5883 8.69027C17.5817 8.81595 17.5718 8.94493 17.5652 9.0706C17.4924 9.19958 17.5618 9.3484 17.5122 9.48069L17.4924 9.95693C17.3965 10.162 17.499 10.3836 17.4329 10.5919C17.4262 10.8565 17.4196 11.1211 17.413 11.3856C17.3469 12.3414 17.3469 13.2972 17.413 14.2497C17.4196 14.5142 17.4296 14.7788 17.4362 15.0434C17.4891 15.2253 17.4031 15.4237 17.4924 15.6023C17.499 15.761 17.5089 15.9165 17.5155 16.0752C17.5652 16.2042 17.4891 16.3497 17.5718 16.4754C17.6015 17.6858 17.843 18.8665 18.0844 20.0439C18.8087 23.5594 20.0654 26.893 21.6132 30.1176C22.6153 32.2077 23.6504 34.278 24.6492 36.3681C25.7042 38.5773 26.6633 40.8229 27.199 43.2273C27.3545 43.9284 27.457 44.6427 27.5827 45.3472C27.6389 45.4761 27.5628 45.625 27.6422 45.7539L27.6356 45.7606Z" fill="white"/>
<path id="Vector_3" d="M25.5187 55.7388C25.3831 56.4068 25.3831 57.1046 25.092 57.7429C24.9333 56.7706 24.7646 55.8082 24.4637 54.8822C24.1561 53.933 23.7857 53.0037 23.3789 52.0876C22.3967 49.8784 21.1796 47.8015 19.7939 45.8271C18.9704 44.653 18.0973 43.522 17.2077 42.3975C15.091 39.722 12.9017 37.1027 11.1687 34.1461C10.1865 32.476 9.36297 30.7331 8.70153 28.9108C8.2286 27.6111 7.85488 26.2816 7.54401 24.9389C7.32904 24.0096 7.13722 23.0703 7.04131 22.1179C7.01485 21.8467 6.96855 21.5755 6.92887 21.3076C6.86603 21.1819 6.95202 21.0331 6.86603 20.9107C6.85942 20.8049 6.8528 20.6991 6.84619 20.5932C6.79327 20.461 6.86272 20.3121 6.78996 20.1832C6.78335 20.031 6.77343 19.8756 6.76681 19.7235C6.70398 19.5416 6.79658 19.3398 6.70728 19.1579C6.70067 18.9231 6.69406 18.6883 6.68744 18.4535C6.65106 17.3191 6.65106 16.1848 6.68744 15.0504C6.69406 14.8189 6.70398 14.5841 6.71059 14.3526C6.78996 14.1971 6.71059 14.0219 6.76351 13.8631C6.77012 13.7308 6.77674 13.5985 6.78335 13.4663C6.86934 13.3439 6.78666 13.1984 6.84288 13.0694C6.90572 12.5832 6.98178 12.1004 7.02147 11.6109C7.0347 11.4555 7.06777 11.3563 7.21659 11.3265C7.39849 11.2901 7.48117 11.3959 7.50763 11.5613C7.587 12.064 7.46794 12.5733 7.57046 13.0727C7.57708 13.3604 7.58369 13.6515 7.587 13.9392C7.65976 14.174 7.55062 14.422 7.64984 14.6535C7.65645 14.8123 7.66307 14.971 7.66968 15.1298C7.72921 15.2819 7.63661 15.4539 7.72921 15.606C7.7689 17.0248 8.03347 18.4171 8.31128 19.8028C8.96941 23.0968 10.1104 26.2221 11.6979 29.1787C12.7529 31.1432 13.9732 33.0084 15.3027 34.7943C16.7843 36.7819 18.3056 38.7398 19.7906 40.7274C21.3384 42.801 22.7538 44.9573 23.8717 47.2955C24.4504 48.5092 25.0391 49.723 25.2805 51.0657C25.3599 51.5155 25.436 51.9686 25.5154 52.4183C25.565 52.5473 25.4889 52.6928 25.5716 52.8185C25.5782 53.0302 25.5848 53.2385 25.5947 53.4502C25.6245 53.8702 25.6311 54.2902 25.5914 54.7102C25.5848 54.9186 25.5782 55.1269 25.5716 55.3353C25.4955 55.4609 25.5683 55.6098 25.5154 55.7421L25.5187 55.7388Z" fill="white"/>
<path id="Vector_4" d="M28.576 46.0679C28.5826 45.7504 28.5892 45.4362 28.5958 45.1187C28.6553 44.6392 28.6587 44.1563 28.5958 43.6768C28.5892 43.3328 28.5793 42.9889 28.5727 42.6449C28.5164 42.4366 28.609 42.215 28.5164 42.0066C28.5098 41.8512 28.5032 41.6925 28.4999 41.537C28.4338 41.3816 28.5264 41.2063 28.4371 41.0575C28.3577 40.2869 28.2452 39.5196 28.1361 38.7491C28.0038 37.8396 27.8451 36.94 27.6632 36.0405C27.4251 34.8664 27.1406 33.7023 26.8 32.5514C26.5553 31.7246 26.2477 30.9077 26.089 30.0611C25.9037 29.0788 26.3469 28.2719 27.0844 27.6402C27.4284 27.3459 27.8484 27.164 28.2452 26.9424C28.4668 26.82 28.5363 26.9424 28.576 27.1011C29.0357 28.9366 29.4987 30.7721 29.9385 32.6142C30.2064 33.7321 30.4379 34.8565 30.6066 35.9942C30.7091 36.6788 30.8083 37.3633 30.9075 38.0479C30.9737 38.2034 30.8811 38.3787 30.9704 38.5275C30.977 38.6829 30.9836 38.8417 30.9869 38.9971C31.0564 39.2617 30.9572 39.5395 31.0464 39.8007C31.0464 40.3233 31.0464 40.8458 31.0464 41.3684C30.9538 41.5999 31.0465 41.8479 30.9902 42.0827C30.762 44.8178 29.8823 47.3147 28.2618 49.5404C28.2221 49.5933 28.1857 49.6462 28.1427 49.6959C28.1262 49.7124 28.0964 49.7157 28.0336 49.7388C28.2684 48.7004 28.4437 47.6719 28.5164 46.6301C28.5991 46.4449 28.5098 46.2465 28.5727 46.0613L28.576 46.0679Z" fill="white"/>
<path id="Vector_5" d="M27.4949 24.2442C27.1939 25.3157 26.4994 25.9871 25.4411 26.3145C25.1699 26.3972 25.074 26.3442 25.0244 26.0664C24.8822 25.2826 24.697 24.5055 24.5713 23.7183C24.4721 23.1032 24.4357 22.4815 24.3729 21.8597C24.3233 21.7274 24.3927 21.5786 24.32 21.4496C24.3101 21.2677 24.3001 21.0891 24.2935 20.9072C24.2373 20.6989 24.3332 20.4773 24.2373 20.2756L24.2175 19.3231C24.1811 18.7179 24.1844 18.1127 24.2175 17.5074C24.2241 17.1668 24.234 16.8262 24.2406 16.4855C24.3299 16.2772 24.234 16.0523 24.3001 15.8406C24.3068 15.6819 24.3134 15.5264 24.32 15.3677C24.4093 15.2156 24.3167 15.0403 24.3828 14.8881C24.3894 14.7823 24.3927 14.6765 24.3994 14.5707C24.4853 14.4483 24.3994 14.2995 24.4622 14.1738C24.654 12.2159 25.0608 10.2945 25.6263 8.41598C26.4862 5.56188 27.6669 2.84337 29.2576 0.310064C29.2775 0.276992 29.3039 0.247227 29.3238 0.214155C29.4032 0.0653317 29.5288 -0.0504199 29.6909 0.0223382C29.8562 0.0950964 29.8066 0.273685 29.757 0.409279C29.595 0.852443 29.4164 1.28899 29.2543 1.73215C28.411 4.01742 27.7628 6.3556 27.3329 8.75662C27.108 10.02 26.8831 11.2833 26.85 12.5698C26.7706 12.7252 26.8533 12.9038 26.7905 13.0626C26.7839 13.2445 26.7772 13.4297 26.7739 13.6116C26.678 13.8728 26.7805 14.1473 26.7177 14.4086C26.6714 15.2586 26.678 16.1052 26.7144 16.9551C26.7872 17.2164 26.6813 17.4942 26.7772 17.7522C26.7839 17.9374 26.7938 18.1193 26.8004 18.3045C26.8467 18.4368 26.7772 18.5823 26.8533 18.708C26.8831 19.9515 27.1576 21.1586 27.3725 22.3756C27.4122 22.6071 27.4651 22.8353 27.5114 23.0635C27.561 23.1925 27.4817 23.338 27.5677 23.4604C27.5677 23.5894 27.5677 23.715 27.5677 23.844C27.4817 23.9664 27.5677 24.1185 27.5048 24.2475L27.4949 24.2442Z" fill="white"/>
</g>
<g id="Group 58">
<path id="Vector_6" d="M43.5295 48.2202C44.0553 47.2942 44.5746 46.3616 45.1103 45.4389C46.5655 42.9254 48.0207 40.4153 49.4858 37.9084C50.6036 36.0002 51.738 34.0986 52.8624 32.1936C53.299 31.4528 53.7223 30.7087 54.1522 29.9646C54.1952 29.8951 54.1853 29.8389 54.1092 29.8091C54.0199 29.7728 53.9273 29.7926 53.8347 29.7926C51.1989 29.7926 48.5597 29.7926 45.9239 29.7926C45.8346 29.7926 45.7387 29.7728 45.6527 29.829C44.8987 29.829 44.2041 30.1002 43.4766 30.3978C43.6651 29.9712 43.7941 29.5875 44.0652 29.2601C44.5349 28.688 45.2029 28.6847 45.8313 28.5491C45.9834 28.4863 46.1587 28.5789 46.3075 28.4896C46.5721 28.4829 46.8367 28.4763 47.1013 28.4697C48.8971 28.44 50.6896 28.4333 52.4854 28.473C53.8446 28.4796 55.2072 28.4929 56.5665 28.4929C56.8906 28.4929 56.9964 28.5061 56.7848 28.8633C54.8434 32.1572 52.9186 35.4644 50.9905 38.7683C49.4328 41.4372 47.8751 44.1061 46.3208 46.775C46.291 46.8279 46.2811 46.8941 46.2546 46.9734C48.2753 46.9734 50.2696 46.9734 52.2605 46.9734C53.2791 46.9734 54.2944 46.9734 55.313 46.9734C56.0472 46.9734 56.7285 46.8114 57.3172 46.3451C57.423 46.6394 57.3106 46.9834 57.0096 47.324C56.4706 47.9358 55.7463 48.1376 54.979 48.2335C54.8864 48.2467 54.7971 48.2533 54.7045 48.2632C54.3771 48.2996 54.0464 48.2798 53.7157 48.2798C50.4581 48.2798 47.2038 48.2798 43.9462 48.2798C43.8073 48.2798 43.6552 48.336 43.5295 48.2269V48.2202Z" fill="white"/>
<path id="Vector_7" d="M86.8099 43.2464C86.7966 42.2014 86.9421 41.153 86.6941 40.1112C86.3932 38.8512 85.5531 38.1567 84.3493 37.8293C83.2745 37.5349 82.2327 37.7069 81.0983 38.0938C81.7763 37.0918 82.7188 36.7908 83.7408 36.6354C84.1079 36.6089 84.475 36.6056 84.8421 36.6354C85.6986 36.7908 86.5056 37.0322 87.2067 37.5978C87.9343 38.1897 88.2816 38.9537 88.4139 39.8499C88.4535 40.1079 88.48 40.3692 88.5131 40.6271C88.5792 40.9975 88.4734 41.3746 88.5693 41.7417V43.6235C88.5098 44.6355 88.5065 45.6475 88.5693 46.6595C88.5561 47.2283 88.738 47.7376 89.0422 48.2072C89.0158 48.2601 88.9695 48.2734 88.9132 48.2734C87.1637 48.2634 85.4109 48.2965 83.6614 48.2535C82.7056 48.2138 81.8259 47.9592 81.0586 47.3573C80.4203 46.8579 80.0532 46.1865 79.878 45.4325C79.5935 44.2287 79.8317 43.1009 80.5857 42.1088C81.1149 41.4109 81.8689 41.1166 82.7122 40.9975C83.0264 40.9678 83.3406 40.9645 83.6548 40.9975C84.2435 41.1331 84.7561 41.4143 85.2456 41.8607C85.0537 41.8773 84.9082 41.8938 84.7627 41.907C84.5808 41.9665 84.3824 41.874 84.2038 41.9632C82.2294 41.9963 80.8767 44.1394 81.7697 45.826C82.0773 46.4081 82.5833 46.762 83.2249 46.8678C84.3361 47.0563 85.4638 46.9538 86.5817 46.9637C86.833 46.9637 86.7437 46.7851 86.7503 46.6561C86.833 46.0575 86.7702 45.4523 86.7867 44.8537C86.8032 44.318 86.7636 43.7789 86.8066 43.2431L86.8099 43.2464Z" fill="white"/>
<path id="Vector_8" d="M69.0817 45.4553C69.0817 45.7761 69.0784 46.0969 69.075 46.4177C69.1379 46.5764 69.0552 46.7517 69.1346 46.9104C69.1346 47.3437 69.29 47.7273 69.5215 48.0845C69.5976 48.1672 69.5678 48.2333 69.4785 48.2664C69.4058 48.2928 69.3231 48.2796 69.2437 48.2796C67.5041 48.2796 65.7645 48.2796 64.0249 48.2796C63.9588 48.2796 63.8927 48.2796 63.8298 48.2565C63.1122 48.2234 62.4441 48.0481 61.8058 47.7009C60.9955 47.2577 60.5689 46.5731 60.3539 45.7099C60.2613 45.3362 60.2845 44.9625 60.2448 44.5888C60.2018 44.1423 60.2117 43.6958 60.2415 43.2494C60.2746 42.373 60.2977 41.4966 60.2415 40.6202C60.1886 40.435 60.2713 40.2398 60.1886 40.0579C60.1324 39.4064 60.0563 38.7615 59.8711 38.0571C60.7343 38.3812 61.4023 38.8409 61.776 39.6644C61.9646 40.0745 62.0109 40.5143 62.1068 40.9476C62.163 41.1328 62.0803 41.3345 62.1597 41.5164C62.1597 42.0356 62.1597 42.5549 62.1597 43.0741C62.0968 43.7951 62.1001 44.516 62.1597 45.237C62.1068 46.2556 62.841 46.9336 63.9687 46.8972C64.1242 46.9733 64.2994 46.8972 64.4582 46.9501C65.3015 46.96 66.1449 46.9667 66.9882 46.9832C67.1734 46.9865 67.2462 46.927 67.2395 46.7351C67.2296 46.2589 67.2395 45.786 67.2395 45.3097C67.3024 44.3242 67.3024 43.342 67.2395 42.3564C67.2329 41.7512 67.2263 41.1427 67.2164 40.5375C67.1536 40.22 67.2495 39.8926 67.1602 39.5784C67.1536 39.3436 67.1436 39.1088 67.137 38.874C67.0775 38.6921 67.1701 38.4969 67.0775 38.3183C67.0709 38.1861 67.0643 38.0538 67.0576 37.9215C66.9981 37.7958 67.0841 37.647 66.9981 37.5246C66.9551 37.2865 66.9187 37.0451 66.8691 36.807C66.8559 36.7408 66.8261 36.6747 66.8691 36.6218C66.9287 36.5523 66.9849 36.6218 67.0378 36.6482C68.1556 37.1112 68.8468 37.8917 68.9891 39.1319C69.032 39.499 69.032 39.8661 69.0717 40.2332C69.1213 41.4999 69.085 42.7665 69.0916 44.0332C69.0916 44.5094 69.1147 44.9823 69.0783 45.4586L69.0817 45.4553Z" fill="white"/>
<path id="Vector_9" d="M94.9942 46.6563C94.971 47.2318 95.1794 47.7378 95.4671 48.2206C95.1033 48.3331 94.7329 48.2702 94.3658 48.257C93.582 48.1743 93.1157 47.6716 93.1157 46.8647C93.1091 42.3868 93.1091 37.9088 93.1024 33.4342C93.1024 33.0241 93.0826 32.6173 93.0694 32.2072C93.0132 31.9724 93.1058 31.7244 93.0132 31.4896C92.9635 30.4445 92.742 29.4457 92.0938 28.4668C92.656 28.609 93.0495 28.8537 93.4067 29.1646C94.4022 30.0344 94.8255 31.1754 94.9346 32.4586C94.9743 33.378 94.9379 34.2941 94.9545 35.2135C94.9545 35.3557 94.9181 35.5012 94.9876 35.6401C94.9876 37.2738 94.9876 38.9076 94.9876 40.5413C94.8983 41.087 94.9677 41.6393 94.9479 42.185C94.928 42.7472 94.9776 43.3128 94.9214 43.875C94.9214 44.5662 94.9214 45.2541 94.9214 45.9453C94.9942 46.1801 94.885 46.4281 94.9842 46.6596L94.9942 46.6563Z" fill="white"/>
<path id="Vector_10" d="M73.5023 31.5747C73.4163 30.5263 73.1914 29.5176 72.6523 28.585C73.6809 28.747 75.3775 30.4238 75.4205 32.8512C75.4569 32.9405 75.4436 33.0331 75.4436 33.1257C75.4436 36.5354 75.4436 39.9485 75.4436 43.3582C75.4436 43.4508 75.4569 43.5434 75.4205 43.6327C75.4205 44.4297 75.4205 45.2234 75.4205 46.0205C75.4866 46.2321 75.3907 46.457 75.48 46.6654C75.4535 47.1813 75.6123 47.6443 75.8703 48.0841C75.9662 48.2693 75.8405 48.2793 75.7148 48.276C75.4271 48.2694 75.1427 48.3024 74.8549 48.2594C74.0744 48.1768 73.5982 47.6641 73.5982 46.8671C73.5883 42.1676 73.5883 37.4648 73.5817 32.7653C73.5817 32.6065 73.5717 32.4478 73.5684 32.2923C73.4957 32.0575 73.6048 31.8095 73.5056 31.578L73.5023 31.5747Z" fill="white"/>
<path id="Vector_11" d="M46.0214 54.266C45.7635 55.1689 45.5121 56.0585 45.2542 56.9481C45.2013 57.13 45.1384 57.2788 44.8871 57.2788C44.6456 57.2788 44.5762 57.1598 44.52 56.968C44.219 55.8997 43.9181 54.8315 43.6039 53.7666C43.5675 53.6476 43.4848 53.5153 43.6502 53.4954C43.7924 53.4756 44.0107 53.34 44.09 53.6442C44.2852 54.3884 44.5067 55.1259 44.7118 55.8667C44.7614 56.042 44.7912 56.2205 44.9301 56.4388C45.188 55.5492 45.4228 54.7158 45.6841 53.889C45.7337 53.7335 45.7106 53.4723 46.0082 53.4723C46.2166 53.4723 46.3654 53.4789 46.4348 53.7435C46.6333 54.5008 46.8714 55.2482 47.093 55.999C47.126 56.1081 47.1723 56.2172 47.2385 56.3991C47.4733 55.9295 47.5461 55.4764 47.6717 55.0432C47.7974 54.6099 47.9396 54.1833 48.0388 53.7468C48.105 53.4491 48.3067 53.4227 48.5085 53.4954C48.7367 53.5748 48.5349 53.7534 48.5085 53.8559C48.2273 54.8745 47.9264 55.8898 47.632 56.9051C47.5659 57.13 47.4965 57.3218 47.1889 57.2822C47.0301 57.2623 46.9838 57.2226 46.9408 57.0639C46.7093 56.204 46.4514 55.3541 46.1967 54.5008C46.1736 54.4247 46.1934 54.3057 46.0214 54.2693V54.266Z" fill="white"/>
<path id="Vector_12" d="M76.8309 61.7231C76.53 61.7595 76.3514 61.9116 76.3381 62.2258C76.3249 62.5234 76.4605 62.7285 76.7416 62.831C76.9632 62.9104 77.1782 63.0063 77.4031 63.0658C77.9024 63.2047 78.1902 63.5189 78.2365 64.0348C78.2762 64.468 77.9917 64.8451 77.4857 65.0733C77.4262 65.0997 77.3667 65.1262 77.3038 65.1526C77.0426 65.189 76.7813 65.1857 76.52 65.1526C76.2621 65.1361 76.0471 65.06 75.8784 64.8385C75.7858 64.7194 75.6569 64.6533 75.8354 64.5011C75.9777 64.3788 76.0769 64.2928 76.2654 64.4614C76.6656 64.8153 76.9996 64.8385 77.3964 64.5838C77.5916 64.4581 77.7437 64.2961 77.7172 64.0414C77.6941 63.8033 77.5188 63.6809 77.3204 63.6016C77.036 63.4858 76.7383 63.4097 76.4605 63.2808C75.9247 63.0327 75.7495 62.7384 75.8156 62.1332C75.8652 61.6735 76.1596 61.3957 76.606 61.2832C76.6821 61.2634 76.7582 61.2502 76.8342 61.2336C77.0161 61.1939 77.198 61.1972 77.3832 61.2336C77.5287 61.2898 77.6809 61.3295 77.8132 61.4023C77.9521 61.4784 78.2067 61.5346 78.0678 61.7562C77.9521 61.9447 77.7437 62.0571 77.5287 61.8256C77.4791 61.7727 77.4262 61.7032 77.3336 61.7165C77.1649 61.6768 76.9963 61.6503 76.8309 61.7264V61.7231Z" fill="white"/>
<path id="Vector_13" d="M61.7662 65.1529C61.1312 65.1033 60.4962 64.4981 60.2912 63.7044C60.0597 62.8181 60.5591 61.7102 61.3627 61.3794C61.5413 61.3067 61.7364 61.2802 61.925 61.2306C62.1069 61.2008 62.2887 61.1975 62.4706 61.2306C62.7749 61.3001 63.0692 61.3993 63.314 61.6043C63.4 61.6738 63.5951 61.7664 63.4132 61.892C63.2974 61.9681 63.1883 62.2525 62.9733 62.0177C62.8377 61.8689 62.6459 61.8226 62.4806 61.7234C62.2887 61.6572 62.0969 61.6705 61.9051 61.7201C61.376 61.8094 60.9427 62.2261 60.8137 62.7718C60.6517 63.4597 60.8237 64.0483 61.3826 64.4849C61.7993 64.809 62.2623 64.8421 62.7484 64.6006C62.8741 64.5378 62.9634 64.4518 63.056 64.3625C63.2313 64.1872 63.3702 64.2997 63.4992 64.4121C63.6778 64.5676 63.4793 64.6337 63.4066 64.7164C63.2048 64.9578 62.9337 65.0835 62.6294 65.1529C62.3417 65.1893 62.0539 65.1893 61.7662 65.1529Z" fill="white"/>
<path id="Vector_14" d="M84.7426 62.9872C84.4251 63.0864 84.2928 63.3213 84.2895 63.6354C84.2829 64.1084 84.2895 64.5813 84.2895 65.0542C83.8595 65.127 83.8662 65.127 83.8529 64.7268C83.8397 64.2803 83.9058 63.8306 83.8166 63.3874C83.8166 63.2121 83.7372 63.0798 83.5884 62.9905C83.4461 62.9277 83.3039 62.9376 83.1617 62.9905C82.8409 63.0368 82.7086 63.2386 82.702 63.5461C82.6127 63.986 82.6789 64.4325 82.6656 64.8756C82.659 65.0509 82.5863 65.0972 82.4275 65.0972C82.2688 65.0972 82.1828 65.0542 82.1894 64.8756C82.2126 64.115 82.153 63.3543 82.2225 62.597C82.3614 62.64 82.5697 62.4878 82.6359 62.7623C82.659 62.8615 82.7318 62.7524 82.7748 62.726C83.2576 62.4283 83.6876 62.4382 84.0977 62.8086C84.2035 62.9045 84.2233 62.8814 84.2961 62.802C84.6434 62.4316 85.0766 62.4515 85.4867 62.6234C85.867 62.7855 85.9563 63.1592 85.9596 63.5494C85.9596 64.0488 85.9596 64.5515 85.9596 65.0509C85.5297 65.1237 85.5363 65.1237 85.5231 64.7235C85.5098 64.3035 85.5694 63.8802 85.4867 63.4635C85.4801 63.2386 85.3643 63.0864 85.1659 62.9938C85.0303 62.9178 84.8881 62.9475 84.7492 62.9872H84.7426Z" fill="white"/>
<path id="Vector_15" d="M56.0581 65.9298C56.6964 65.9529 57.0568 65.4072 56.8088 64.8186C56.5045 64.0943 56.2201 63.3634 55.9258 62.6325C56.2995 62.5035 56.4946 62.6325 56.6104 63.0095C56.7559 63.4791 56.9609 63.9289 57.1693 64.4647C57.3975 63.9091 57.6257 63.4329 57.7844 62.9335C57.8903 62.5994 58.0622 62.5333 58.3896 62.6358C57.9564 63.714 57.5298 64.7921 57.0965 65.8669C57.0039 66.0984 56.832 66.2539 56.5971 66.3432C56.4417 66.3729 56.2863 66.3762 56.1308 66.3432C56.1011 66.3366 56.0746 66.3299 56.0448 66.3266C55.9952 66.1943 55.9754 66.0621 56.0548 65.9298H56.0581Z" fill="white"/>
<path id="Vector_16" d="M65.1658 62.99C64.8152 63.0528 64.6896 63.2843 64.6962 63.6151C64.6135 63.9888 64.6763 64.3625 64.6631 64.7395C64.6499 65.1297 64.6565 65.1297 64.2266 65.0537V61.095C64.6565 61.0222 64.6565 61.0222 64.6598 61.4092C64.6598 61.7862 64.6598 62.1632 64.6631 62.5435C64.6631 62.6196 64.6036 62.7386 64.759 62.7519C65.5461 62.2988 66.148 62.5071 66.3895 63.3207C66.4292 63.7903 66.3994 64.2633 66.406 64.7329C66.4093 65.1297 66.406 65.1297 65.9728 65.0537C65.943 64.5245 66.0091 63.9954 65.9099 63.4629C65.8669 63.2314 65.7942 63.0892 65.6024 62.9867C65.4568 62.9437 65.3113 62.9272 65.1691 62.99H65.1658Z" fill="white"/>
<path id="Vector_17" d="M70.1781 57.3057C69.9466 57.2958 69.7448 57.2197 69.6258 57.0113C69.5828 56.9353 69.3876 56.8724 69.5662 56.7402C69.682 56.6542 69.7977 56.5483 69.9399 56.6939C70.1582 56.9121 70.4228 56.9551 70.7039 56.8592C70.8263 56.8162 70.9916 56.7865 70.9751 56.5781C70.9619 56.4094 70.8693 56.3069 70.7271 56.2573C70.4955 56.1746 70.2574 56.1184 70.0259 56.039C69.7415 55.9431 69.6291 55.7381 69.6158 55.4404C69.6026 55.1296 69.7117 54.9113 70.0061 54.7889C70.4096 54.6236 70.7998 54.6335 71.1735 54.8584C71.2893 54.9278 71.4546 55.0469 71.3157 55.2023C71.2198 55.3081 71.0677 55.4768 70.8924 55.2618C70.8362 55.1924 70.77 55.1097 70.6642 55.1229C70.4592 55.1527 70.1714 55.0601 70.102 55.3445C70.0292 55.6554 70.3335 55.6752 70.5253 55.7546C70.5948 55.7844 70.6808 55.7678 70.7601 55.7844C71.2198 55.8836 71.5042 56.1647 71.5076 56.5219C71.5109 56.8758 71.2463 57.1668 70.7998 57.3024C70.5915 57.3288 70.3831 57.3288 70.1781 57.3024V57.3057Z" fill="white"/>
<path id="Vector_18" d="M83.9769 57.3053C83.7719 57.2987 83.5833 57.2491 83.4874 57.0473C83.4411 56.9514 83.1964 56.9349 83.3518 56.7596C83.4709 56.624 83.6197 56.6009 83.7718 56.7166C83.9802 56.8787 84.2183 56.9581 84.4697 56.8721C84.5987 56.8258 84.7905 56.7927 84.7739 56.5744C84.7607 56.3925 84.6582 56.2933 84.4862 56.2503C84.2745 56.1941 84.0629 56.1445 83.8611 56.0684C83.5701 55.9593 83.3915 55.7741 83.4213 55.4202C83.4511 55.0829 83.5701 54.8514 83.9074 54.7489C84.2944 54.6298 84.6582 54.6629 84.9988 54.8778C85.108 54.9473 85.2369 55.0663 85.1179 55.1986C85.0187 55.3045 84.8731 55.4797 84.6979 55.2714C84.6152 55.1722 84.516 55.1391 84.387 55.1391C84.1853 55.1391 83.9571 55.1126 83.9008 55.3607C83.8413 55.6253 84.0761 55.6749 84.2646 55.7344C84.3506 55.7609 84.4432 55.7675 84.5325 55.784C84.9955 55.8766 85.2832 56.1412 85.3064 56.4951C85.3295 56.8588 85.0617 57.1664 84.5987 57.3086C84.3903 57.3351 84.1819 57.3351 83.9769 57.3086V57.3053Z" fill="white"/>
<path id="Vector_19" d="M66.848 57.3052C66.6429 57.2986 66.4544 57.249 66.3585 57.0472C66.3122 56.9513 66.0675 56.9348 66.2229 56.7595C66.342 56.6239 66.4941 56.6008 66.6429 56.7198C66.8645 56.8918 67.1126 56.9646 67.3771 56.8587C67.4962 56.8091 67.6649 56.7728 67.645 56.5743C67.6285 56.409 67.5359 56.3064 67.3904 56.2601C67.1721 56.1874 66.9406 56.151 66.7256 56.0683C66.4544 55.9658 66.2692 55.8004 66.2924 55.4565C66.3122 55.1192 66.4147 54.8678 66.7488 54.7587C67.1291 54.633 67.4995 54.6495 67.8468 54.8645C67.9658 54.9406 68.1213 55.0563 67.9857 55.2085C67.8898 55.3143 67.7343 55.4796 67.5623 55.2647C67.5293 55.225 67.4863 55.1655 67.4466 55.1655C67.2118 55.1588 66.8943 55.0199 66.7852 55.3176C66.6694 55.6384 67.0001 55.6748 67.2085 55.7608C67.2779 55.7905 67.3639 55.774 67.4433 55.7905C67.8798 55.8864 68.1576 56.151 68.1841 56.4916C68.2106 56.8488 67.9328 57.1696 67.4764 57.3052C67.268 57.3317 67.0597 57.3317 66.8546 57.3052H66.848Z" fill="white"/>
<path id="Vector_20" d="M58.8169 57.2817C58.5292 57.3148 58.4101 57.2156 58.4234 56.8981C58.4465 56.3127 58.4234 55.724 58.4168 55.1386C58.3936 55.0064 58.3638 54.8741 58.4366 54.7451C58.5722 54.7947 58.7739 54.626 58.8467 54.9005C58.8765 55.0163 58.9591 54.8807 59.0121 54.8542C59.6867 54.5136 60.2027 54.6591 60.5863 55.304C60.6127 55.9654 60.6624 56.6236 60.5598 57.2817C60.2589 57.3181 60.1464 57.2056 60.1696 56.8882C60.196 56.4814 60.1894 56.0713 60.153 55.6645C60.1233 55.2908 59.9215 55.1056 59.5048 55.1287C59.1212 55.1519 58.9823 55.3701 58.9062 55.6843C58.893 55.7339 58.9062 55.7902 58.9029 55.8431C58.8235 56.1936 58.8897 56.5508 58.8632 56.9014C58.8533 57.027 58.9128 57.166 58.8136 57.2817H58.8169Z" fill="white"/>
<path id="Vector_21" d="M69.2226 65.0411C68.8919 64.2408 68.5645 63.4404 68.2305 62.6302C68.5843 62.531 68.8026 62.6004 68.9151 63.0006C69.0275 63.4008 69.2226 63.7778 69.3748 64.168C69.4045 64.2441 69.4244 64.3268 69.5203 64.3135C69.593 64.3036 69.5997 64.2242 69.6228 64.1614C69.7815 63.7414 69.9601 63.328 70.1023 62.9047C70.2049 62.5971 70.3901 62.5376 70.6844 62.6335C70.3802 63.4371 70.0759 64.2408 69.7716 65.0477C69.5864 65.1205 69.4045 65.1304 69.2226 65.0444V65.0411Z" fill="white"/>
<path id="Vector_22" d="M94.3621 55.9822C94.3621 55.8367 94.3555 55.6911 94.3621 55.5456C94.3786 55.2877 94.3786 55.0595 94.0082 55.1256C93.8792 55.1488 93.8164 55.076 93.8164 54.9404C93.8164 54.8147 93.8528 54.7221 93.9917 54.7453C94.3323 54.8048 94.3885 54.6262 94.3654 54.3418C94.3555 54.2128 94.3026 54.0409 94.5473 54.0342C94.7722 54.0309 94.835 54.1566 94.802 54.3352C94.7325 54.7321 94.9475 54.7717 95.255 54.7453C95.3708 54.7354 95.5295 54.6924 95.5395 54.9106C95.5494 55.1355 95.4072 55.1488 95.2583 55.1223C94.8416 55.0496 94.7689 55.2612 94.802 55.6151C94.8284 55.8896 94.8086 56.1707 94.8086 56.4485C94.8086 56.7792 94.9475 56.9446 95.2947 56.895C95.4006 56.8784 95.5395 56.8189 95.5494 57.0239C95.556 57.1794 95.513 57.2554 95.3443 57.2951C94.7127 57.4406 94.3786 57.1926 94.3621 56.5411C94.3555 56.3559 94.3621 56.1707 94.3621 55.9855V55.9822Z" fill="white"/>
<path id="Vector_23" d="M54.1264 57.2791H53.7692C53.6799 57.2096 53.713 57.1104 53.713 57.0211C53.713 55.8603 53.713 54.6995 53.713 53.5387C53.713 53.3733 53.6634 53.1914 53.9478 53.1914C54.2323 53.1914 54.1826 53.3733 54.1826 53.5387C54.1826 54.6995 54.1826 55.8603 54.1826 57.0211C54.1826 57.1104 54.2157 57.2096 54.1264 57.2791Z" fill="white"/>
<path id="Vector_24" d="M56.517 57.2791H56.1599C56.0706 57.2096 56.1036 57.1104 56.1036 57.0211C56.1036 55.8603 56.1036 54.6995 56.1036 53.5387C56.1036 53.3733 56.054 53.1914 56.3385 53.1914C56.6229 53.1914 56.5733 53.3733 56.5733 53.5387C56.5733 54.6995 56.5733 55.8603 56.5733 57.0211C56.5733 57.1104 56.6063 57.2096 56.517 57.2791Z" fill="white"/>
<path id="Vector_25" d="M91.1887 54.7417C91.3276 54.7847 91.5327 54.6326 91.5988 54.9038C91.6253 55.0096 91.6947 54.9038 91.7377 54.8773C91.9758 54.7318 92.2338 54.6689 92.5116 54.6689C92.6439 54.8178 92.591 54.9798 92.5414 55.1386C91.8402 55.0394 91.6253 55.4329 91.6054 56.0315C91.5955 56.3192 91.579 56.6103 91.6087 56.8947C91.6451 57.2221 91.4996 57.3114 91.2119 57.2783C91.0928 57.0567 91.1589 56.8186 91.1589 56.5871C91.1656 55.972 91.116 55.3568 91.1854 54.7417H91.1887Z" fill="white"/>
<path id="Vector_26" d="M67.2383 65.0405C67.2383 64.3261 67.2416 63.6151 67.2449 62.9007C67.2449 62.7387 67.2217 62.5898 67.4731 62.5898C67.7244 62.5898 67.7013 62.7387 67.7013 62.9007C67.7013 63.6151 67.7046 64.3261 67.7079 65.0405C67.5525 65.1298 67.3937 65.1298 67.2383 65.0405Z" fill="white"/>
<path id="Vector_27" d="M67.3614 61.3233C67.6392 61.3365 67.7715 61.4358 67.7748 61.6342C67.7781 61.8591 67.626 61.9451 67.4143 61.955C67.153 61.9649 67.1597 61.783 67.1563 61.611C67.153 61.4225 67.2324 61.3101 67.3614 61.3233Z" fill="white"/>
<path id="Vector_28" d="M77.8636 57.1629C77.6221 56.7594 77.3873 56.3493 77.126 55.9591C76.9508 55.6945 76.8714 55.5324 77.2616 55.3737C77.7147 55.1918 77.8702 54.7817 77.7809 54.2559C77.7213 53.902 77.3972 53.644 76.9805 53.5481C76.5109 53.4357 76.038 53.5018 75.565 53.4721C75.3699 53.4588 75.3203 53.5415 75.3203 53.7234C75.3269 54.8181 75.3269 55.9161 75.3203 57.0108C75.3203 57.186 75.3567 57.2753 75.5584 57.272C75.7701 57.272 75.7899 57.1629 75.7899 56.9975C75.7899 56.5345 75.8032 56.0748 75.8131 55.6151C75.9851 55.549 76.1603 55.549 76.3323 55.6151C76.5969 56.0451 76.9012 56.4585 77.1161 56.9149C77.2914 57.2853 77.5328 57.315 77.8602 57.2423C77.8602 57.2125 77.8702 57.1827 77.8602 57.1629H77.8636ZM75.9718 55.1058C75.5783 54.9537 75.8594 54.5403 75.7966 54.2493C75.7668 54.1104 75.737 53.9119 75.995 53.9185C76.114 53.9185 76.2331 53.9185 76.3489 53.9185C76.3489 53.9152 76.3489 53.9119 76.3489 53.9053C76.5175 53.9218 76.6928 53.9185 76.8582 53.9582C77.126 54.0244 77.2914 54.203 77.3013 54.4907C77.3112 54.7784 77.1657 54.9603 76.8978 55.0496C76.5903 55.1521 76.243 55.2083 75.9685 55.1025L75.9718 55.1058Z" fill="white"/>
<path id="Vector_29" d="M54.647 62.5763C54.2071 62.4407 53.8367 62.5929 53.4332 62.8111V61.0947C53.0033 61.0219 53 61.0219 53 61.4188C53 62.5201 53 63.6247 53 64.7293C53 65.1295 53 65.1295 53.4332 65.0534C53.4663 64.9807 53.3373 64.7062 53.6085 64.9277C53.8103 65.0931 54.0848 65.1857 54.3262 65.1923C54.9876 65.2122 55.5465 64.6632 55.6391 63.972C55.7251 63.3469 55.3051 62.7814 54.647 62.5796V62.5763ZM54.2931 64.7392C53.8037 64.7326 53.4366 64.3457 53.4366 63.8397C53.4366 63.3304 53.8037 62.9368 54.2865 62.9269C54.7859 62.9137 55.1761 63.3138 55.1794 63.8331C55.1794 64.3622 54.8057 64.7458 54.2931 64.7392Z" fill="white"/>
<path id="Vector_30" d="M50.446 56.1342C50.8957 56.1276 51.3422 56.1276 51.792 56.1342C51.9937 56.1342 52.1029 56.0813 52.0301 55.8597C51.8978 55.0693 51.4844 54.6658 50.8098 54.679C50.1582 54.6889 49.6357 55.1057 49.5729 55.648C49.4604 56.6303 49.7779 57.1594 50.5154 57.3049C50.7502 57.3347 50.985 57.3446 51.2198 57.2983C51.4249 57.2388 51.6002 57.1197 51.7622 56.9874C51.8284 56.9345 51.9805 56.8585 51.8581 56.7493C51.7622 56.6667 51.663 56.5013 51.491 56.6071C51.415 56.6534 51.3587 56.7394 51.2794 56.7824C51.0148 56.9312 50.7304 56.9742 50.4559 56.8188C50.2145 56.6832 49.9962 56.5079 50.059 56.1739C50.1814 56.0945 50.317 56.1375 50.446 56.1342ZM50.2078 55.3438C50.5286 54.9535 51.2232 55.0064 51.4613 55.4364C51.5903 55.6679 51.5737 55.8068 51.2595 55.7803C51.1041 55.7671 50.9453 55.7803 50.7866 55.7803C50.6543 55.7803 50.522 55.7869 50.393 55.7803C50.2806 55.7737 50.1219 55.8432 50.0656 55.734C49.9896 55.5885 50.1219 55.4595 50.2112 55.3537L50.2078 55.3438Z" fill="white"/>
<path id="Vector_31" d="M63.196 56.1342C63.6457 56.1276 64.0922 56.1276 64.542 56.1342C64.7437 56.1342 64.8529 56.0813 64.7801 55.8597C64.6478 55.0693 64.2344 54.6658 63.5598 54.679C62.9082 54.6889 62.3857 55.1057 62.3229 55.648C62.2104 56.6303 62.5279 57.1594 63.2654 57.3049C63.5002 57.3347 63.735 57.3446 63.9698 57.2983C64.1749 57.2388 64.3502 57.1197 64.5122 56.9874C64.5784 56.9345 64.7305 56.8585 64.6081 56.7493C64.5122 56.6667 64.413 56.5013 64.241 56.6071C64.165 56.6534 64.1087 56.7394 64.0294 56.7824C63.7648 56.9312 63.4804 56.9742 63.2059 56.8188C62.9645 56.6832 62.7462 56.5079 62.809 56.1739C62.9314 56.0945 63.067 56.1375 63.196 56.1342ZM62.9578 55.3438C63.2786 54.9535 63.9732 55.0064 64.2113 55.4364C64.3403 55.6679 64.3237 55.8068 64.0095 55.7803C63.8541 55.7671 63.6954 55.7803 63.5366 55.7803C63.4043 55.7803 63.272 55.7869 63.143 55.7803C63.0306 55.7737 62.8719 55.8432 62.8156 55.734C62.7396 55.5885 62.8719 55.4595 62.9612 55.3537L62.9578 55.3438Z" fill="white"/>
<path id="Vector_32" d="M80.3288 56.1342C80.7786 56.1276 81.225 56.1276 81.6748 56.1342C81.8765 56.1342 81.9857 56.0813 81.9129 55.8597C81.7806 55.0693 81.3672 54.6658 80.6926 54.679C80.041 54.6889 79.5185 55.1057 79.4557 55.648C79.3432 56.6303 79.6607 57.1594 80.3982 57.3049C80.633 57.3347 80.8678 57.3446 81.1027 57.2983C81.3077 57.2388 81.483 57.1197 81.645 56.9874C81.7112 56.9345 81.8633 56.8585 81.7409 56.7493C81.645 56.6667 81.5458 56.5013 81.3738 56.6071C81.2978 56.6534 81.2416 56.7394 81.1622 56.7824C80.8976 56.9312 80.6132 56.9742 80.3387 56.8188C80.0973 56.6832 79.879 56.5079 79.9418 56.1739C80.0642 56.0945 80.1998 56.1375 80.3288 56.1342ZM80.0907 55.3438C80.4115 54.9535 81.106 55.0064 81.3441 55.4364C81.4731 55.6679 81.4565 55.8068 81.1423 55.7803C80.9869 55.7671 80.8282 55.7803 80.6694 55.7803C80.5371 55.7803 80.4048 55.7869 80.2759 55.7803C80.1634 55.7737 80.0047 55.8432 79.9484 55.734C79.8724 55.5885 80.0047 55.4595 80.094 55.3537L80.0907 55.3438Z" fill="white"/>
<path id="Vector_33" d="M88.7151 54.7913C88.1628 54.5995 87.5178 54.6061 87.0615 55.2047C86.7605 55.5983 86.7572 56.0613 86.8829 56.4714C87.0152 56.9079 87.3194 57.2817 87.8618 57.3048C88.0702 57.3379 88.2785 57.3313 88.4869 57.3048C89.1384 57.1064 89.5121 56.6467 89.522 56.0282C89.5319 55.4859 89.2045 54.9633 88.7151 54.7913ZM88.1628 56.9046C87.6766 56.898 87.3095 56.5177 87.3029 56.015C87.2996 55.4991 87.6898 55.0791 88.1727 55.0791C88.6621 55.0791 89.0491 55.4892 89.0458 56.0084C89.0392 56.5475 88.682 56.9113 88.1594 56.9046H88.1628Z" fill="white"/>
<path id="Vector_34" d="M80.1242 62.527C79.3867 62.5071 78.798 62.99 78.8344 63.8135C78.7914 64.7064 79.347 65.1231 80.0845 65.1959C80.8088 65.2653 81.5297 64.584 81.5 63.8664C81.4669 63.066 81.07 62.5534 80.1242 62.527ZM80.144 64.7395C79.6612 64.7295 79.2974 64.3393 79.2974 63.83C79.2974 63.3141 79.6975 62.9106 80.1936 62.9271C80.6732 62.9404 81.0436 63.3405 81.0403 63.8399C81.037 64.3658 80.6533 64.7494 80.144 64.7362V64.7395Z" fill="white"/>
<path id="Vector_35" d="M73.2487 63.5592C73.2222 63.1954 73.1892 62.8052 72.7725 62.6365C72.2929 62.448 71.82 62.491 71.3702 62.7258C71.2875 62.7688 71.1784 62.8614 71.2677 62.9805C71.3404 63.0797 71.4231 63.2087 71.5918 63.1127C71.6943 63.0532 71.7902 62.9772 71.9192 62.997C72.1044 62.9342 72.2896 62.9309 72.4748 62.997C72.6633 63.0995 72.7824 63.2483 72.7791 63.4732C72.6369 63.5691 72.4682 63.4732 72.3227 63.5361C72.1672 63.5559 72.0151 63.5724 71.863 63.5989C71.5058 63.6617 71.1784 63.7643 71.1122 64.1942C71.0792 64.3232 71.0858 64.4522 71.1122 64.5811C71.1916 64.9218 71.3967 65.0971 71.7538 65.1434C72.1209 65.193 72.4318 65.1136 72.7195 64.9019C72.7559 64.8755 72.7923 64.8457 72.832 64.8193C72.8485 64.8986 72.8617 64.9813 72.8783 65.0607C73.0271 65.0871 73.1892 65.1963 73.2917 64.9846C73.2818 64.5084 73.2917 64.0321 73.2553 63.5625L73.2487 63.5592ZM72.0647 64.7696C71.8332 64.7597 71.5885 64.7167 71.5752 64.3761C71.562 64.0487 71.8762 63.8899 72.5079 63.88C72.6799 63.88 72.8188 63.88 72.8022 64.1214C72.7791 64.4952 72.4946 64.7697 72.0647 64.773V64.7696Z" fill="white"/>
<path id="Vector_36" d="M75.3193 63.5723H73.9766V64.032H75.3193V63.5723Z" fill="white"/>
</g>
</g>
</svg>
